<svg width="492" height="492" viewBox="0 0 492 492" fill="none" xmlns="http://www.w3.org/2000/svg">
<path d="M147.01 149.273C146.321 148.19 145.337 147.305 144.156 146.813C142.975 146.321 141.696 146.124 140.417 146.321C139.138 146.616 137.957 147.403 137.268 148.584C136.874 149.273 136.579 150.06 136.579 150.847C135.989 150.454 135.3 150.158 134.611 149.962C133.332 149.765 131.856 150.06 130.774 150.847C129.79 151.634 129.101 152.717 128.707 153.898C128.314 155.078 128.215 156.456 128.609 157.735C129.101 159.31 130.085 160.786 131.462 161.671C132.84 162.655 134.611 163.147 136.382 163.344C139.236 163.639 142.975 164.033 142.975 164.033C142.975 164.033 144.648 161.081 146.222 158.719C147.206 157.342 147.994 155.669 148.19 153.996C148.289 152.323 147.895 150.65 147.01 149.273Z" fill="#E0E0E0"/>
<path d="M356.405 226.025C356.208 224.746 355.519 223.565 354.634 222.679C353.748 221.794 352.567 221.105 351.386 220.908C350.107 220.711 348.631 221.006 347.549 221.892C346.958 222.384 346.368 222.974 346.073 223.762C345.679 223.171 345.187 222.679 344.498 222.286C343.318 221.597 341.94 221.4 340.661 221.695C339.48 221.99 338.398 222.778 337.61 223.762C336.823 224.746 336.233 226.025 336.134 227.304C336.036 228.878 336.43 230.65 337.315 232.027C338.299 233.405 339.775 234.586 341.251 235.373C343.81 236.75 347.057 238.423 347.057 238.423C347.057 238.423 349.714 236.258 352.075 234.684C353.453 233.7 354.83 232.519 355.618 230.945C356.503 229.37 356.7 227.599 356.405 226.025Z" fill="#E0E0E0"/>
<path d="M269.714 83.0496C269.813 81.3768 269.222 79.8024 268.337 78.3264C267.451 76.9488 266.172 75.8664 264.696 75.276C263.122 74.6856 261.252 74.784 259.678 75.4728C258.792 75.9648 258.005 76.6536 257.316 77.4408C256.922 76.5552 256.43 75.768 255.742 75.1776C254.462 73.9968 252.691 73.4064 251.018 73.5048C249.444 73.6032 247.87 74.3904 246.59 75.3744C245.311 76.4568 244.327 77.8344 243.835 79.4088C243.343 81.3768 243.343 83.7384 244.13 85.608C245.016 87.6744 246.59 89.3473 248.263 90.8233C251.117 93.1849 254.856 96.1368 254.856 96.1368C254.856 96.1368 258.694 94.0704 262.138 92.5944C264.204 91.7088 266.172 90.5281 267.55 88.8553C268.927 87.2809 269.714 85.116 269.714 83.0496Z" fill="#E0E0E0"/>
<path d="M410.722 155.767C410.623 152.225 409.246 148.879 407.179 146.026C405.113 143.27 402.358 141.007 399.11 139.925C395.666 138.842 391.73 139.236 388.483 141.007C386.614 142.09 384.941 143.566 383.76 145.435C382.973 143.664 381.694 142.09 380.218 140.81C377.364 138.449 373.625 137.366 369.984 137.858C366.54 138.252 363.391 140.023 360.931 142.385C358.373 144.746 356.405 147.895 355.716 151.339C354.83 155.669 355.224 160.49 357.094 164.426C359.16 168.559 362.702 172.2 366.442 174.857C372.739 179.482 381.005 185.287 381.005 185.287C381.005 185.287 388.877 180.466 395.962 177.022C400.094 174.955 404.227 172.2 406.982 168.461C409.541 164.82 410.82 160.097 410.722 155.767Z" fill="#F5F5F5"/>
<path d="M125.263 64.1568C123.787 61.008 121.13 58.4496 118.08 56.6784C115.128 55.0056 111.586 54.0216 108.24 54.3168C104.599 54.7104 101.155 56.6784 98.9904 59.532C97.7112 61.3032 96.8256 63.2712 96.432 65.436C94.956 64.1568 93.1848 63.1728 91.3152 62.5824C87.7728 61.5984 83.9352 62.0904 80.7864 63.96C77.8344 65.7312 75.6696 68.5848 74.292 71.7336C72.9144 74.9808 72.324 78.6216 73.0128 81.9672C73.8984 86.2968 76.1616 90.528 79.5072 93.3816C83.0496 96.432 87.6744 98.2032 92.2008 99.2856C99.7776 101.057 109.716 103.025 109.716 103.025C109.716 103.025 115.03 95.448 120.146 89.544C123.197 86.0016 125.854 81.7704 126.838 77.244C127.822 72.9144 127.133 68.1912 125.263 64.1568Z" fill="#F5F5F5"/>
<path d="M337.906 46.4448C337.709 43.296 336.331 40.2456 334.363 37.7856C332.395 35.3256 329.837 33.3576 326.885 32.5704C323.736 31.6848 320.194 32.1768 317.34 33.8496C315.667 34.8336 314.29 36.3096 313.207 37.9824C312.42 36.408 311.239 34.932 309.862 33.8496C307.205 31.7832 303.761 30.8976 300.514 31.488C297.463 31.98 294.61 33.6528 292.445 35.8176C290.182 38.0808 288.509 40.9344 287.918 44.0832C287.23 48.0192 287.722 52.3488 289.591 55.8912C291.559 59.6304 294.905 62.6808 298.349 65.0424C304.154 69.0768 311.83 74.0952 311.83 74.0952C311.83 74.0952 318.816 69.4704 325.114 66.2232C328.853 64.2552 332.494 61.5984 334.855 58.056C337.118 54.7104 338.102 50.4792 337.906 46.4448Z" fill="#F5F5F5"/>
<path d="M101.746 259.874C101.647 258.398 101.057 257.021 100.073 255.84C99.1872 254.659 98.0064 253.774 96.5304 253.38C95.0544 252.986 93.3816 253.183 92.1024 253.97C91.3152 254.462 90.6264 255.151 90.1344 255.938C89.7408 255.151 89.2488 254.561 88.56 254.069C87.3792 253.085 85.7064 252.691 84.2304 252.986C82.7544 253.183 81.4752 253.97 80.4912 255.053C79.4088 256.135 78.6216 257.414 78.4248 258.89C78.1296 260.76 78.3264 262.728 79.212 264.401C80.0976 266.172 81.672 267.55 83.2464 268.73C86.0016 270.6 89.544 272.962 89.544 272.962C89.544 272.962 92.7912 270.797 95.7432 269.222C97.5144 268.337 99.1872 267.058 100.27 265.385C101.352 263.712 101.844 261.646 101.746 259.874Z" fill="#F5F5F5"/>
<path d="M202.999 42.9024C203.098 41.1312 202.507 39.3601 201.622 37.8841C200.736 36.4081 199.358 35.2272 197.784 34.5385C196.111 33.8497 194.143 33.9481 192.47 34.6369C191.486 35.1289 190.601 35.8177 189.912 36.7032C189.518 35.8177 189.026 34.9321 188.338 34.2433C187.058 32.9641 185.189 32.2753 183.319 32.3737C181.646 32.4721 179.974 33.1609 178.596 34.2433C177.218 35.3257 176.136 36.8016 175.644 38.4744C175.054 40.5408 175.054 43.0008 175.841 45.0672C176.726 47.232 178.301 49.1016 180.072 50.676C183.024 53.2344 186.96 56.4816 186.96 56.4816C186.96 56.4816 191.093 54.3168 194.734 52.9392C196.898 52.0536 199.063 50.7745 200.539 49.1017C202.114 47.4289 202.901 45.0672 202.999 42.9024Z" fill="#F5F5F5"/>
<path d="M83.4432 178.694C83.64 175.841 82.656 172.987 81.18 170.527C79.704 168.166 77.5392 166.099 74.8824 165.017C72.1272 163.934 68.88 164.033 66.1248 165.214C64.5504 166.001 63.0744 167.083 61.992 168.559C61.4016 167.083 60.516 165.607 59.3352 164.525C57.1704 162.458 54.12 161.278 51.168 161.474C48.3144 161.573 45.6576 162.852 43.4928 164.623C41.2296 166.394 39.4584 168.854 38.6712 171.61C37.6872 175.054 37.6872 179.088 39.0648 182.434C40.4424 185.976 43.1976 189.125 46.0512 191.585C50.8728 195.718 57.3672 201.031 57.3672 201.031C57.3672 201.031 64.1568 197.587 70.0608 195.226C73.6032 193.848 77.1456 191.782 79.6056 188.83C81.8688 185.976 83.2464 182.237 83.4432 178.694Z" fill="#F5F5F5"/>
<path d="M451.754 210.478C451.853 208.608 451.262 206.837 450.278 205.262C449.294 203.786 447.917 202.409 446.244 201.818C444.473 201.13 442.406 201.13 440.635 202.015C439.651 202.507 438.667 203.196 437.978 204.18C437.585 203.196 436.994 202.31 436.306 201.622C434.928 200.342 432.96 199.555 431.09 199.654C429.319 199.752 427.548 200.539 426.17 201.622C424.694 202.802 423.612 204.278 423.12 206.05C422.53 208.214 422.53 210.773 423.317 212.938C424.202 215.201 425.875 217.169 427.745 218.743C430.795 221.4 434.928 224.746 434.928 224.746C434.928 224.746 439.258 222.482 442.997 221.006C445.26 220.121 447.523 218.842 449.098 216.972C450.77 215.201 451.656 212.839 451.754 210.478Z" fill="#F5F5F5"/>
<path d="M386.318 88.2648C386.417 86.6904 385.925 85.116 385.039 83.7385C384.154 82.4592 382.973 81.2785 381.595 80.6881C380.021 80.0977 378.25 80.0977 376.774 80.7864C375.888 81.18 375.101 81.8689 374.51 82.6561C374.215 81.7705 373.723 81.0816 373.034 80.3928C371.854 79.212 370.181 78.6217 368.508 78.7201C366.934 78.8185 365.458 79.5073 364.178 80.4913C362.899 81.4753 361.915 82.8528 361.522 84.3288C360.931 86.2968 361.03 88.4617 361.718 90.3313C362.506 92.2993 363.982 94.0705 365.556 95.4481C368.213 97.8097 371.854 100.663 371.854 100.663C371.854 100.663 375.593 98.6952 378.938 97.416C380.906 96.6289 382.874 95.4481 384.252 93.8737C385.531 92.2993 386.22 90.2328 386.318 88.2648Z" fill="#F5F5F5"/>
<path d="M85.7064 413.772C96.5304 428.532 115.915 441.718 132.938 448.311C150.06 454.903 162.852 458.151 180.761 461.988C216.48 469.565 262.925 467.203 301.99 460.709C341.054 454.313 380.611 442.013 406.982 412.493L85.7064 413.772Z" fill="#E3E3E3"/>
<path d="M373.625 414.658C373.625 414.658 373.428 414.855 373.133 415.051C372.739 415.347 372.247 415.74 371.558 416.331C370.181 417.413 368.114 418.987 365.359 420.857C362.604 422.727 359.16 424.99 355.027 427.253C350.894 429.615 346.073 431.976 340.562 434.338C329.542 439.061 315.864 443.39 300.317 446.146C284.77 448.999 267.353 450.278 249.05 450.377C230.748 450.377 213.331 449.885 197.686 447.818C189.814 446.834 182.434 445.358 175.644 443.686C168.854 441.914 162.557 439.848 157.046 437.486C146.026 432.862 137.858 427.45 132.545 423.317C129.888 421.251 128.018 419.479 126.739 418.299C126.149 417.708 125.657 417.216 125.263 416.921C124.968 416.626 124.771 416.429 124.771 416.429C124.771 416.429 124.968 416.527 125.263 416.921C125.657 417.216 126.05 417.708 126.739 418.299C128.018 419.479 129.986 421.152 132.643 423.219C137.957 427.253 146.124 432.665 157.145 437.191C162.655 439.454 168.854 441.521 175.644 443.292C182.434 445.063 189.814 446.441 197.686 447.425C213.331 449.393 230.748 449.885 249.05 449.885C267.254 449.786 284.671 448.507 300.218 445.654C315.766 442.898 329.443 438.667 340.464 433.944C345.974 431.582 350.796 429.221 354.929 426.958C359.062 424.694 362.506 422.431 365.261 420.562C368.016 418.692 370.082 417.118 371.558 416.035C372.247 415.543 372.739 415.15 373.133 414.855C373.428 414.756 373.625 414.658 373.625 414.658Z" fill="white"/>
<path d="M311.338 412.296C311.338 412.296 311.239 412.394 311.042 412.493C310.846 412.591 310.55 412.788 310.255 413.083C309.566 413.575 308.484 414.264 307.106 415.15C304.253 416.921 300.022 419.184 294.511 421.25C289.001 423.317 282.113 425.285 274.438 426.466C266.664 427.745 258.103 428.237 249.05 428.335C239.998 428.335 231.437 428.139 223.663 427.253C215.89 426.367 209.002 424.793 203.393 422.726C197.784 420.66 193.651 418.298 190.896 416.429C189.518 415.445 188.534 414.658 187.846 414.067C187.55 413.772 187.255 413.575 187.058 413.378C186.862 413.182 186.763 413.182 186.862 413.182C186.862 413.182 186.96 413.28 187.157 413.378C187.354 413.575 187.649 413.772 187.944 413.969C188.633 414.461 189.617 415.248 190.994 416.232C193.75 418.102 197.882 420.463 203.491 422.431C209.002 424.399 215.89 425.974 223.663 426.859C231.437 427.745 239.998 427.942 249.05 427.942C258.005 427.942 266.664 427.351 274.339 426.171C282.014 424.99 288.902 423.12 294.413 421.152C299.923 419.086 304.154 416.921 307.008 415.248C308.386 414.362 309.468 413.772 310.255 413.28C310.649 413.083 310.846 412.886 311.042 412.788C311.239 412.296 311.338 412.296 311.338 412.296Z" fill="white"/>
<path d="M457.363 412.985C457.363 413.083 361.915 413.28 244.229 413.28C126.542 413.28 31.0944 413.182 31.0944 412.985C31.0944 412.886 126.444 412.69 244.229 412.69C361.915 412.69 457.363 412.788 457.363 412.985Z" fill="#484A4C"/>
<path d="M478.519 324.818C476.158 325.015 473.894 326.491 472.517 328.656C479.11 318.324 480.782 304.45 476.945 292.346C476.158 289.985 475.075 287.525 472.91 286.639C471.533 286.049 469.762 286.639 468.876 287.918C469.466 284.474 469.466 280.834 468.974 277.291C468.778 275.717 468.286 274.044 467.105 273.06C465.432 271.781 463.07 272.666 461.791 274.339C460.512 276.012 460.118 278.275 459.725 280.44C453.23 263.712 438.077 251.314 421.742 249.247C418.495 248.854 414.854 248.854 412.394 251.117C409.836 253.38 409.442 258.398 412.198 260.268C409.147 259.186 405.9 258.103 402.653 258.497C399.406 258.89 396.257 261.154 395.568 264.598C394.584 269.026 398.028 273.257 401.472 275.914C406.195 279.456 411.607 281.719 416.724 284.77C421.742 287.82 426.662 291.854 429.024 297.66C431.976 305.04 430.205 313.601 426.958 320.587C420.758 333.773 409.147 343.613 395.962 346.86L406.687 370.673C420.266 379.922 457.166 372.346 467.892 359.75C469.565 357.782 471.139 355.224 471.041 352.469C470.844 349.714 468.089 347.057 465.826 348.238C473.107 343.416 481.668 328.262 478.519 324.818Z" fill="#E7BD6C"/>
<g opacity="0.6">
<path opacity="0.6" d="M395.568 264.598C394.584 269.026 398.028 273.257 401.472 275.914C406.195 279.456 411.607 281.719 416.724 284.77C418.79 286.049 420.857 287.426 422.726 289.099C424.793 287.328 425.58 283.884 425.088 280.932C424.498 277.488 422.726 274.536 420.857 271.682C423.218 274.733 426.17 277.193 429.418 278.964C430.598 279.653 432.074 280.145 433.255 279.653C435.322 278.866 435.617 275.717 434.83 273.454C434.042 271.19 432.468 269.321 431.878 266.959C433.747 268.632 435.617 270.403 437.782 271.486C439.946 272.568 442.505 272.962 444.768 271.978C447.326 270.797 448.901 267.845 449.196 264.893C449.196 264.401 449.294 264.007 449.294 263.515C441.816 255.643 432.074 250.33 421.841 248.952C418.594 248.558 414.953 248.558 412.493 250.822C409.934 253.085 409.541 258.103 412.296 259.973C409.246 258.89 405.998 257.808 402.751 258.202C399.504 258.89 396.257 261.154 395.568 264.598Z" fill="white"/>
</g>
<path d="M391.632 313.994L362.506 298.25C362.506 298.25 344.695 288.214 335.741 279.456C319.8 264.007 316.061 250.526 316.061 250.526L230.059 289.985L212.544 295.495C214.709 304.646 215.102 321.965 220.908 339.578C222.482 344.498 227.304 349.025 227.501 347.352C227.698 345.974 227.501 348.238 227.501 348.238C230.551 356.306 234.094 366.737 244.524 373.92C252.298 385.728 269.026 392.518 275.815 396.355C285.95 402.161 324.228 413.378 324.228 413.378L353.945 415.642L428.532 356.405C428.532 356.7 424.104 330.821 391.632 313.994Z" fill="#E7BD6C"/>
<path d="M290.477 378.938C295.594 383.366 297.562 390.451 298.25 397.142C298.939 403.834 298.644 410.722 300.317 417.314C296.971 416.33 293.232 418.987 292.543 422.431C291.756 425.875 293.626 429.516 296.381 431.582C299.136 433.747 302.678 434.534 306.221 434.731C312.125 435.026 318.521 433.452 322.555 429.024C326.294 424.99 327.574 419.381 329.05 414.166C331.608 405.113 334.954 396.355 337.512 387.401C340.07 378.446 341.842 369 340.956 359.652C341.842 359.947 342.629 360.242 343.514 360.538C346.663 361.423 343.613 350.894 340.464 346.171" fill="#E7BD6C"/>
<path d="M340.366 346.466C340.366 346.466 340.661 346.762 341.054 347.549C341.448 348.238 342.038 349.32 342.727 350.796C343.318 352.272 344.006 354.142 344.498 356.405C344.597 356.995 344.695 357.586 344.794 358.176C344.892 358.766 344.892 359.455 344.695 360.144C344.597 360.439 344.302 360.833 343.908 360.931C343.711 360.931 343.514 360.931 343.318 360.931L342.826 360.734C342.137 360.538 341.448 360.242 340.759 360.046L340.956 359.849C341.35 363.883 341.35 368.606 340.562 373.822C339.874 378.938 338.496 384.547 336.725 390.451C334.954 396.355 332.789 402.456 330.722 408.95C329.64 412.198 328.754 415.543 327.77 418.987C326.786 422.431 325.409 425.875 323.047 428.827C319.997 432.468 315.47 434.338 311.042 434.928C308.779 435.223 306.614 435.223 304.45 435.026C302.285 434.731 300.12 434.239 298.25 433.255C296.381 432.271 294.708 430.894 293.527 429.122C292.445 427.351 291.756 425.285 291.953 423.317C292.346 419.282 296.479 416.134 300.218 417.118L299.923 417.413C298.447 411.41 298.546 405.703 298.152 400.783C297.857 395.863 297.168 391.534 296.086 388.188C295.003 384.842 293.429 382.481 292.248 381.005C291.658 380.316 291.166 379.726 290.772 379.43C290.378 379.135 290.28 378.938 290.28 378.938C290.28 378.938 291.067 379.529 292.346 381.005C293.527 382.481 295.102 384.842 296.282 388.188C297.463 391.534 298.25 395.863 298.447 400.783C298.841 405.703 298.742 411.41 300.218 417.314L300.317 417.708L299.923 417.61C296.578 416.626 292.543 419.578 292.248 423.415C292.051 425.285 292.642 427.253 293.724 428.926C294.806 430.598 296.381 431.976 298.25 432.862C300.12 433.747 302.186 434.338 304.253 434.534C306.418 434.731 308.582 434.731 310.747 434.436C315.077 433.846 319.505 431.976 322.457 428.434C324.818 425.678 326.098 422.234 327.082 418.79C328.066 415.346 328.951 412.001 330.034 408.754C332.1 402.259 334.363 396.06 336.134 390.254C337.906 384.449 339.283 378.84 339.972 373.723C340.661 368.606 340.759 363.883 340.366 359.849V359.652L340.562 359.75C341.251 359.947 341.94 360.242 342.629 360.439C342.924 360.538 343.318 360.734 343.514 360.636C343.81 360.636 344.006 360.341 344.105 360.046C344.302 359.455 344.302 358.766 344.203 358.176C344.105 357.586 344.006 356.995 343.908 356.405C343.416 354.142 342.727 352.272 342.137 350.796C341.546 349.32 340.956 348.238 340.562 347.45C340.366 347.057 340.169 346.86 340.07 346.663C340.464 346.565 340.366 346.466 340.366 346.466Z" fill="#484A4C"/>
<path d="M304.253 420.66C304.253 420.758 303.564 421.054 302.482 421.841C301.399 422.628 300.022 423.809 299.038 425.482C297.955 427.154 297.562 428.926 297.365 430.303C297.168 431.582 297.266 432.468 297.168 432.468C297.07 432.468 296.873 431.681 296.971 430.303C297.07 428.926 297.463 427.056 298.546 425.285C299.628 423.514 301.104 422.234 302.285 421.546C303.466 420.857 304.253 420.66 304.253 420.66Z" fill="#484A4C"/>
<path d="M311.633 421.152C311.633 421.25 310.944 421.742 309.96 422.726C308.976 423.71 307.697 425.285 306.91 427.253C306.122 429.221 305.926 431.189 306.024 432.665C306.122 434.042 306.319 434.928 306.221 434.928C306.122 434.928 305.827 434.141 305.63 432.665C305.434 431.189 305.532 429.122 306.418 427.056C307.205 424.989 308.582 423.415 309.665 422.431C310.747 421.545 311.633 421.152 311.633 421.152Z" fill="#484A4C"/>
<path d="M238.915 370.082C242.064 376.675 245.606 382.284 246.295 389.074C246.984 395.863 246.689 402.653 248.362 409.246C245.016 408.262 241.277 410.918 240.588 414.362C239.801 417.806 241.67 421.447 244.426 423.514C247.181 425.678 250.723 426.466 254.266 426.662C260.17 426.958 266.566 425.383 270.6 420.955C274.339 416.921 277.39 403.145 278.472 397.733" fill="#E7BD6C"/>
<path d="M278.374 397.831C278.374 397.831 278.374 397.93 278.374 398.126C278.374 398.323 278.275 398.618 278.177 399.012C278.078 399.799 277.783 400.882 277.488 402.259C276.898 405.113 275.914 409.246 274.241 414.067C273.847 415.346 273.257 416.527 272.666 417.905C272.076 419.184 271.289 420.463 270.206 421.644C268.042 423.809 264.991 425.482 261.646 426.269C258.3 427.056 254.561 427.253 250.822 426.564C248.952 426.17 247.082 425.58 245.41 424.596C243.737 423.612 242.261 422.136 241.277 420.365C240.588 419.086 240.096 417.61 240.096 416.134C240.096 414.658 240.391 413.182 241.178 412.001C241.966 410.82 243.048 409.836 244.327 409.246C244.918 408.95 245.606 408.754 246.295 408.754C246.984 408.655 247.673 408.754 248.362 408.95L248.066 409.246C246.59 403.44 246.689 397.831 246.295 393.01C246.098 390.55 246 388.188 245.508 386.122C245.016 384.055 244.327 382.186 243.638 380.513C242.261 377.167 240.883 374.609 239.998 372.838C239.604 371.952 239.21 371.263 239.014 370.771C238.915 370.574 238.817 370.378 238.817 370.279C238.718 370.181 238.718 370.082 238.718 370.082C238.718 370.082 238.718 370.181 238.817 370.279C238.915 370.378 239.014 370.574 239.112 370.771C239.407 371.263 239.702 371.952 240.194 372.739C241.08 374.51 242.458 377.069 243.934 380.316C244.622 381.989 245.311 383.858 245.902 386.023C246.394 388.188 246.59 390.451 246.787 392.911C247.181 397.831 247.181 403.342 248.558 409.049L248.657 409.442L248.263 409.344C245.902 408.655 243.048 410.033 241.67 412.198C240.194 414.461 240.391 417.61 241.769 419.971C242.654 421.644 244.13 423.022 245.705 424.006C247.378 424.99 249.149 425.58 250.92 425.875C254.561 426.564 258.202 426.367 261.449 425.58C264.794 424.793 267.648 423.218 269.813 421.054C270.895 419.971 271.584 418.692 272.273 417.511C272.863 416.232 273.355 414.953 273.847 413.772C275.618 408.852 276.602 404.818 277.291 401.964C277.586 400.586 277.882 399.504 278.078 398.717C278.177 398.323 278.275 398.126 278.275 397.831C278.374 397.93 278.374 397.831 278.374 397.831Z" fill="#484A4C"/>
<path d="M252.396 412.493C252.396 412.591 251.707 412.886 250.625 413.674C249.542 414.461 248.165 415.642 247.181 417.314C246.098 418.987 245.705 420.758 245.508 422.136C245.311 423.415 245.41 424.301 245.311 424.301C245.213 424.301 245.016 423.514 245.114 422.136C245.213 420.758 245.606 418.889 246.689 417.118C247.771 415.346 249.247 414.067 250.428 413.378C251.609 412.591 252.396 412.394 252.396 412.493Z" fill="#484A4C"/>
<path d="M259.776 412.985C259.776 413.083 259.087 413.575 258.103 414.559C257.119 415.543 255.84 417.118 255.053 419.086C254.266 421.054 254.069 423.022 254.167 424.498C254.266 425.875 254.462 426.761 254.364 426.761C254.266 426.761 253.97 425.974 253.774 424.498C253.577 423.022 253.675 420.955 254.561 418.889C255.348 416.822 256.726 415.248 257.808 414.264C258.89 413.28 259.678 412.886 259.776 412.985Z" fill="#484A4C"/>
<path d="M285.754 400.488C285.754 400.488 285.458 400.39 284.868 400.291C284.278 400.094 283.49 399.898 282.506 399.602C280.44 398.914 277.488 397.93 274.044 396.257C270.6 394.584 266.566 392.222 262.531 389.172C258.497 386.023 254.364 382.186 250.822 377.462C249.936 376.38 249.247 375.298 248.46 374.215L248.854 373.92C249.149 374.412 249.542 374.806 249.641 375.494C249.641 375.691 249.641 375.888 249.444 376.085C249.247 376.282 249.05 376.282 248.952 376.38C248.657 376.478 248.362 376.38 248.066 376.38C246.984 376.085 245.902 375.691 245.016 375.002C241.08 372.542 238.128 369.295 235.865 366.146C233.602 362.998 231.929 359.947 230.748 357.389C229.567 354.83 228.78 352.666 228.19 351.19C227.894 350.501 227.796 349.91 227.599 349.517C227.501 349.123 227.402 348.926 227.402 348.926C227.402 348.926 227.501 349.123 227.599 349.517C227.796 349.91 227.993 350.501 228.288 351.19C228.878 352.666 229.666 354.732 230.945 357.29C232.224 359.849 233.798 362.899 236.062 365.95C238.325 369 241.277 372.247 245.213 374.707C246 375.298 246.984 375.691 248.066 375.888C248.558 375.986 249.149 375.986 249.05 375.593C249.05 375.199 248.657 374.707 248.362 374.215L248.755 373.92C249.542 375.002 250.231 376.085 251.117 377.069C254.659 381.694 258.792 385.531 262.728 388.68C266.762 391.73 270.698 394.092 274.142 395.863C277.586 397.536 280.538 398.618 282.506 399.406C283.49 399.799 284.278 399.996 284.868 400.193C285.458 400.39 285.754 400.488 285.754 400.488Z" fill="#484A4C"/>
<path d="M420.266 344.597L392.419 366.048C384.252 367.229 378.643 372.838 373.034 378.938C365.654 386.909 367.327 394.879 365.162 402.85C364.67 404.522 363.785 405.9 363.096 407.376C361.423 410.918 357.094 409.836 354.732 410.525C351.977 411.312 350.796 412.69 349.517 415.248C348.238 417.806 348.73 421.25 350.599 423.317C352.272 425.088 355.027 425.383 357.389 425.875C363.982 427.351 370.771 428.729 377.364 427.45C383.957 426.17 390.353 421.349 391.337 414.658C395.962 415.937 400.98 415.15 405.408 413.182C409.738 411.115 413.477 407.868 416.527 404.227C423.415 396.06 428.434 385.728 429.024 375.002C429.91 364.375 426.17 353.551 420.266 344.597Z" fill="#E7BD6C"/>
<path d="M398.52 366.048C398.52 366.048 398.422 366.048 398.323 365.95C398.126 365.851 397.93 365.753 397.634 365.654C397.044 365.458 396.257 365.064 395.076 364.769C392.813 364.08 389.467 363.588 385.334 364.277C383.268 364.67 381.103 365.261 378.938 366.343C376.774 367.426 374.609 368.902 372.641 370.87C368.705 374.707 365.556 380.021 363.982 386.22C362.407 392.419 362.506 398.52 363.194 403.932C363.391 405.31 363.49 406.687 362.899 408.065C362.604 408.754 362.112 409.246 361.522 409.541C360.931 409.934 360.341 410.131 359.652 410.23C358.373 410.426 357.192 410.426 356.11 410.525C355.027 410.623 353.945 410.918 353.059 411.509C351.288 412.493 350.009 414.067 349.418 415.543C348.828 417.019 348.828 418.495 348.926 419.676C349.32 421.939 350.206 423.022 350.107 423.022C350.107 423.022 349.91 422.825 349.615 422.234C349.32 421.742 348.926 420.857 348.73 419.676C348.533 418.495 348.533 417.019 349.123 415.445C349.714 413.87 350.993 412.296 352.862 411.214C353.748 410.722 354.83 410.328 356.011 410.23C357.192 410.131 358.373 410.131 359.554 409.836C360.734 409.639 361.915 409.049 362.407 407.868C362.899 406.687 362.801 405.408 362.604 404.03C361.915 398.52 361.817 392.321 363.391 386.122C364.966 379.922 368.114 374.412 372.149 370.574C374.117 368.606 376.38 367.13 378.545 366.048C380.808 364.966 382.973 364.277 385.039 363.982C389.172 363.293 392.714 363.883 394.879 364.572C397.438 365.261 398.52 366.048 398.52 366.048Z" fill="#484A4C"/>
<path d="M356.405 425.186C356.405 425.186 355.814 424.596 355.322 423.317C354.83 422.038 354.634 420.07 355.421 418.102C356.208 416.134 357.782 414.854 358.963 414.166C360.144 413.575 361.03 413.477 361.03 413.575C361.03 413.674 360.242 413.87 359.16 414.559C358.078 415.248 356.7 416.527 355.913 418.298C355.224 420.168 355.322 422.038 355.618 423.218C356.011 424.498 356.503 425.186 356.405 425.186Z" fill="#484A4C"/>
<path d="M366.934 427.253C366.934 427.253 366.737 427.154 366.343 426.958C365.95 426.761 365.458 426.269 364.966 425.678C363.982 424.498 362.998 422.333 363.49 419.971C363.982 417.61 365.556 415.838 366.934 415.051C367.622 414.658 368.213 414.461 368.606 414.362C369 414.264 369.295 414.264 369.295 414.264C369.295 414.362 368.41 414.559 367.13 415.346C365.95 416.134 364.474 417.806 364.08 419.971C363.686 422.234 364.474 424.202 365.359 425.383C366.245 426.662 367.032 427.154 366.934 427.253Z" fill="#484A4C"/>
<path d="M429.221 375.101C429.122 375.101 429.418 373.33 429.614 370.574C429.713 369.197 429.713 367.524 429.614 365.654C429.516 363.785 429.221 361.718 428.827 359.652C428.04 355.421 426.761 351.682 425.678 349.123C425.186 347.844 424.694 346.762 424.399 346.073C424.104 345.384 423.907 344.99 423.907 344.892C423.907 344.892 424.202 345.286 424.596 345.974C424.99 346.663 425.482 347.647 426.072 349.025C427.253 351.583 428.63 355.322 429.418 359.652C429.811 361.817 430.008 363.883 430.106 365.753C430.205 367.622 430.106 369.295 430.008 370.771C429.91 372.149 429.713 373.33 429.614 374.117C429.319 374.707 429.221 375.101 429.221 375.101Z" fill="#484A4C"/>
<path d="M369.098 339.086C369.098 339.086 368.902 338.988 368.606 338.693C368.311 338.398 367.819 338.004 367.327 337.512C366.245 336.43 364.769 334.757 363.49 332.494L363.883 332.297C364.572 334.363 365.064 337.02 364.769 339.775C364.67 340.562 364.572 341.448 364.375 342.235L364.277 342.826L363.982 342.334C361.915 338.988 360.144 336.134 358.865 333.97C358.274 332.986 357.782 332.1 357.389 331.51C357.094 330.919 356.897 330.624 356.897 330.526C356.897 330.526 357.192 330.821 357.487 331.411C357.881 332.1 358.471 332.887 359.062 333.871C360.439 335.938 362.21 338.791 364.277 342.137L363.785 342.235C363.982 341.448 364.08 340.661 364.178 339.874C364.474 337.217 364.08 334.658 363.391 332.592L363.785 332.395C365.064 334.658 366.442 336.331 367.426 337.414C368.41 338.398 369.098 338.988 369.098 339.086Z" fill="#484A4C"/>
<g opacity="0.3">
<path opacity="0.3" d="M368.902 374.117C363.49 379.135 359.554 385.728 357.782 392.911C357.29 394.879 356.995 396.946 355.913 398.618C353.65 402.161 348.73 403.046 344.597 402.653C340.366 402.259 333.182 401.57 333.182 401.57L329.148 413.969C336.528 414.953 349.418 415.543 349.418 415.543C351.19 412.001 353.748 410.23 357.586 410.131C358.57 410.131 359.849 409.934 360.734 409.639C362.112 409.246 362.998 407.868 363.194 406.49C363.391 405.113 363.096 403.637 362.801 402.259C360.931 392.616 363.194 382.186 368.902 374.117Z" fill="black"/>
</g>
<path opacity="0.3" d="M265.09 389.467L298.054 400.783L298.841 405.605C298.742 405.605 267.648 396.355 265.09 389.467Z" fill="black"/>
<g opacity="0.6">
<path opacity="0.6" d="M300.218 256.529L214.807 301.104C220.318 330.624 230.354 348.73 253.38 368.114C255.84 370.181 266.369 377.364 269.222 378.643C272.174 379.922 275.52 380.414 278.472 379.234C282.211 377.758 284.573 374.117 286.246 370.476C290.772 360.341 291.461 349.025 292.051 338.004C293.724 340.169 294.806 342.629 295.298 345.286C301.891 336.43 290.182 306.024 290.674 295.003C291.756 275.914 303.761 275.422 300.218 256.529Z" fill="white"/>
</g>
<path d="M214.906 301.301C214.906 301.301 197.292 259.579 196.997 241.375C196.702 223.171 212.15 209.69 212.15 209.69C212.15 209.69 215.496 192.274 222.286 175.841C229.075 159.506 249.444 134.316 255.151 136.087C260.858 137.858 263.515 141.007 263.515 155.767C263.515 170.626 265.385 179.088 265.385 179.088C265.385 179.088 278.767 182.04 283.097 186.862C283.097 186.862 286.147 186.566 289.886 183.319C293.626 180.072 320.39 156.653 328.066 162.262C335.741 167.772 333.084 194.34 327.18 205.656C321.178 216.972 311.436 231.634 311.141 232.913C310.747 234.29 314.782 251.215 312.617 259.874C310.452 268.632 304.154 279.554 293.527 287.722C282.9 295.889 251.215 315.47 236.062 311.83C220.81 308.287 214.906 301.301 214.906 301.301Z" fill="#E7BD6C"/>
<path opacity="0.6" d="M214.906 301.301C214.906 301.301 197.292 259.579 196.997 241.375C196.702 223.171 212.15 209.69 212.15 209.69C212.15 209.69 215.496 192.274 222.286 175.841C229.075 159.506 249.444 134.316 255.151 136.087C260.858 137.858 263.515 141.007 263.515 155.767C263.515 170.626 265.385 179.088 265.385 179.088C265.385 179.088 278.767 182.04 283.097 186.862C283.097 186.862 286.147 186.566 289.886 183.319C293.626 180.072 320.39 156.653 328.066 162.262C335.741 167.772 333.084 194.34 327.18 205.656C321.178 216.972 311.436 231.634 311.141 232.913C310.747 234.29 314.782 251.215 312.617 259.874C310.452 268.632 304.154 279.554 293.527 287.722C282.9 295.889 251.215 315.47 236.062 311.83C220.81 308.287 214.906 301.301 214.906 301.301Z" fill="white"/>
<path d="M326.983 205.754C332.986 194.438 335.544 167.87 327.869 162.36C320.194 156.85 293.429 180.17 289.69 183.418C285.95 186.665 282.9 186.96 282.9 186.96C282.506 186.468 281.916 185.976 281.326 185.582C276.799 189.026 272.666 192.864 269.222 197.39C264.794 203.196 261.744 210.084 260.957 217.366C260.662 220.613 260.76 224.057 262.433 226.91C264.499 230.453 268.435 232.421 272.371 233.602C285.95 237.636 311.633 227.698 304.548 259.087C304.548 259.087 299.038 273.454 293.822 282.31C292.445 284.573 291.658 289.591 290.87 292.15C291.756 291.461 296.282 292.838 296.971 292.248C307.598 284.081 322.752 273.847 319.898 265.385C315.274 251.806 310.452 234.389 310.846 233.011C311.338 231.634 321.079 217.07 326.983 205.754Z" fill="#E7BD6C"/>
<g opacity="0.6">
<path opacity="0.6" d="M326.098 167.477C324.326 166.296 321.866 166.886 319.8 167.772C309.37 172.397 299.136 180.958 292.838 190.601C292.937 200.933 296.086 211.265 301.793 219.924C302.678 221.302 303.958 222.679 305.532 222.482C306.713 222.286 307.5 221.302 308.287 220.318C318.324 206.738 325.901 190.994 327.869 174.266C328.262 171.806 328.164 168.854 326.098 167.477Z" fill="white"/>
</g>
<path d="M247.673 211.166C252.101 205.164 256.234 198.965 261.055 193.356C264.893 188.928 269.321 184.894 274.438 182.04C269.813 180.269 265.188 179.186 265.188 179.186C265.188 179.186 263.318 170.724 263.318 155.866C263.318 141.007 260.662 137.957 254.954 136.186C249.247 134.414 228.878 159.605 222.089 175.939C217.464 187.058 214.414 198.768 213.036 204.967L213.233 205.066C217.464 208.018 220.711 212.052 224.844 215.102C228.977 218.153 234.29 220.318 239.112 218.645C242.851 217.366 245.41 214.217 247.673 211.166Z" fill="#E7BD6C"/>
<path d="M248.46 230.256C245.705 228.288 244.032 227.501 240.785 226.418C239.112 225.828 237.046 225.533 235.668 226.714C234.586 227.698 234.487 229.37 234.979 230.748C235.471 232.126 236.554 233.208 237.538 234.192C238.62 235.274 239.899 236.258 241.375 236.652C243.835 237.341 245.016 236.849 247.279 235.766C248.066 235.373 249.247 234.684 250.133 233.798C250.723 233.11 250.822 231.535 248.46 230.256Z" fill="#484A4C"/>
<path d="M258.89 242.556C254.856 245.705 253.774 250.034 252.593 254.954C251.314 259.874 250.428 264.991 247.771 269.321C245.016 273.552 239.801 276.799 234.979 275.323C232.322 274.536 230.158 272.47 228.878 270.01C227.599 267.55 227.107 264.794 227.009 262.039C226.714 253.478 230.059 245.114 236.455 239.309C236.455 239.309 239.309 239.801 240.49 240.49C241.572 241.277 247.968 245.016 252.494 243.835C257.119 242.851 258.89 242.556 258.89 242.556Z" fill="#E7BD6C"/>
<path d="M238.03 258.694C237.931 258.694 237.833 257.71 238.03 256.037C238.128 254.462 238.718 252.199 239.702 249.936C240.686 247.673 241.966 245.803 243.146 244.622C244.229 243.442 245.114 242.851 245.114 242.851C245.213 242.95 244.426 243.54 243.442 244.819C242.458 246 241.178 247.87 240.194 250.133C239.21 252.396 238.62 254.462 238.423 256.037C238.128 257.71 238.128 258.694 238.03 258.694Z" fill="#484A4C"/>
<path d="M266.074 238.03C266.074 238.03 265.975 238.226 265.778 238.522C265.582 238.817 265.188 239.309 264.696 239.702C263.712 240.686 261.842 241.769 259.481 242.556C258.3 242.95 256.922 243.245 255.446 243.638C253.97 243.934 252.396 244.229 250.723 244.229C247.378 244.229 243.638 243.146 240.49 240.883C239.702 240.391 238.915 239.899 238.03 239.702C237.144 239.506 236.258 239.702 235.274 239.506C233.405 239.21 231.83 237.931 230.945 236.455C230.059 234.979 229.666 233.405 229.666 231.83C229.666 230.354 230.059 228.878 230.551 227.796C231.634 225.434 233.208 223.958 234.389 223.27C234.979 222.876 235.471 222.679 235.865 222.482C236.258 222.384 236.357 222.286 236.357 222.286C236.357 222.384 235.668 222.581 234.487 223.368C233.405 224.155 231.83 225.631 230.846 227.894C230.354 229.075 230.059 230.354 230.059 231.83C230.059 233.306 230.453 234.782 231.338 236.16C232.224 237.538 233.602 238.718 235.274 238.915C236.16 239.014 237.046 238.915 238.03 239.112C239.014 239.309 239.899 239.801 240.686 240.391C243.737 242.654 247.378 243.737 250.625 243.737C252.298 243.737 253.774 243.54 255.25 243.146C256.726 242.851 258.005 242.556 259.186 242.162C261.547 241.474 263.417 240.391 264.401 239.506C265.68 238.62 266.074 237.931 266.074 238.03Z" fill="#484A4C"/>
<g opacity="0.6">
<path opacity="0.6" d="M220.219 200.441C229.666 192.864 239.998 186.37 250.822 180.958C252.396 180.17 253.97 179.383 255.053 178.104C256.43 176.53 256.922 174.266 257.414 172.2C259.087 164.426 260.662 156.358 258.595 148.682C257.808 146.026 256.135 143.074 253.38 142.877C251.609 142.778 250.034 143.762 248.558 144.845C238.522 152.52 232.618 164.328 227.107 175.644C223.368 183.319 219.53 191.191 219.137 199.752" fill="white"/>
</g>
<path d="M239.21 239.801C239.112 239.899 238.325 238.718 238.325 237.144C238.226 235.57 238.915 234.389 239.014 234.389C239.21 234.487 238.718 235.57 238.817 237.046C238.817 238.62 239.309 239.801 239.21 239.801Z" fill="#484A4C"/>
<g opacity="0.6">
<path opacity="0.6" d="M277.685 204.77C275.422 204.278 272.962 204.377 270.797 205.066C270.01 205.361 269.124 205.754 268.73 206.542C268.238 207.821 269.419 209.002 270.502 209.69C272.568 211.068 275.028 211.855 277.488 212.052C278.374 212.15 279.259 212.15 280.145 211.855C281.03 211.56 281.818 210.97 282.113 210.182C282.605 208.903 282.113 207.427 281.129 206.542C280.145 205.656 278.866 205.164 277.685 204.77Z" fill="white"/>
</g>
<g opacity="0.6">
<path opacity="0.6" d="M244.524 194.242C242.261 193.75 239.801 193.848 237.636 194.537C236.849 194.832 235.963 195.226 235.57 196.013C235.078 197.292 236.258 198.473 237.341 199.162C239.407 200.539 241.867 201.326 244.327 201.523C245.213 201.622 246.098 201.622 246.984 201.326C247.87 201.031 248.657 200.441 248.952 199.654C249.444 198.374 248.952 196.898 247.968 196.013C247.082 195.127 245.705 194.635 244.524 194.242Z" fill="white"/>
</g>
<path d="M246.492 158.522C246.59 158.621 245.311 159.9 243.737 162.163C242.95 163.344 242.064 164.82 241.277 166.394C240.49 168.067 239.702 169.937 239.112 172.003C238.522 174.07 238.226 176.136 238.03 177.907C237.833 179.777 237.833 181.45 237.931 182.827C238.03 185.681 238.423 187.354 238.325 187.354C238.325 187.354 238.226 186.96 238.03 186.173C237.931 185.779 237.833 185.287 237.734 184.697C237.636 184.106 237.538 183.516 237.538 182.827C237.439 181.45 237.439 179.678 237.538 177.809C237.734 175.939 238.03 173.873 238.62 171.806C239.21 169.74 239.998 167.772 240.883 166.099C241.769 164.426 242.654 162.95 243.54 161.868C243.934 161.278 244.327 160.786 244.721 160.392C245.114 159.9 245.41 159.605 245.705 159.31C246.197 158.818 246.492 158.522 246.492 158.522Z" fill="#484A4C"/>
<path d="M275.323 221.695C275.225 224.155 273.257 226.123 270.797 226.025C268.337 225.926 266.369 223.958 266.467 221.498C266.566 219.038 268.534 217.07 270.994 217.169C273.454 217.267 275.422 219.235 275.323 221.695Z" fill="#484A4C"/>
<path d="M241.474 209.887C241.375 212.347 239.407 214.315 236.947 214.217C234.487 214.118 232.519 212.15 232.618 209.69C232.716 207.23 234.684 205.262 237.144 205.361C239.604 205.459 241.474 207.427 241.474 209.887Z" fill="#484A4C"/>
<path d="M325.212 174.955C325.212 174.955 325.114 175.152 324.818 175.349C324.523 175.644 324.13 176.038 323.539 176.53C322.457 177.514 320.981 179.088 319.111 180.958C315.47 184.795 310.747 190.502 306.418 197.39L306.122 197.882L305.926 197.39C305.827 197.194 305.729 196.898 305.63 196.603C304.745 194.143 303.958 191.782 303.17 189.518H303.662C300.907 195.422 300.022 201.228 299.923 205.164C299.825 207.23 299.923 208.805 300.022 209.887C300.12 210.97 300.12 211.56 300.12 211.56C300.12 211.56 300.12 211.462 300.022 211.166C300.022 210.871 299.923 210.478 299.825 209.887C299.726 208.805 299.628 207.132 299.628 205.164C299.726 201.13 300.514 195.324 303.269 189.322L303.564 188.731L303.761 189.322C304.548 191.585 305.335 193.946 306.221 196.406C306.319 196.702 306.418 196.898 306.516 197.194L306.024 197.095C310.354 190.109 315.175 184.5 318.914 180.662C320.784 178.793 322.358 177.317 323.441 176.333C324.031 175.841 324.425 175.447 324.72 175.25C325.015 175.054 325.212 174.955 325.212 174.955Z" fill="#484A4C"/>
<path d="M255.151 315.667C255.151 315.667 255.25 315.962 255.25 316.454C255.348 317.045 255.348 317.832 255.446 318.816C255.545 320.882 255.545 323.834 255.053 327.278V327.672L254.758 327.475C251.904 325.31 248.952 322.26 246.492 318.422C246.295 318.029 246 317.635 245.803 317.34L246.295 317.143C247.279 320.981 248.066 324.622 248.854 327.77L249.05 328.558L248.46 327.967C246 325.409 244.524 322.85 243.638 320.981C243.245 320.095 242.95 319.308 242.753 318.816C242.556 318.324 242.556 318.029 242.556 318.029C242.556 318.029 242.654 318.324 242.851 318.816C243.048 319.308 243.343 320.095 243.835 320.981C244.721 322.752 246.295 325.31 248.755 327.77L248.362 327.967C247.574 324.818 246.689 321.276 245.705 317.34L245.311 315.667L246.197 317.143C246.394 317.537 246.59 317.832 246.886 318.226C249.247 321.965 252.199 325.015 254.954 327.278L254.561 327.377C255.053 323.933 255.151 320.981 255.151 319.013C255.151 318.029 255.151 317.242 255.151 316.651C255.053 315.962 255.053 315.667 255.151 315.667Z" fill="#484A4C"/>
<path d="M105.977 398.126C101.45 401.374 96.6288 404.522 91.3152 405.998C85.9032 407.474 79.704 406.982 75.3744 403.44C69.864 398.914 68.7816 390.845 69.4704 383.662C70.7496 369.098 76.8504 354.732 74.0952 340.366C72.0288 330.034 65.1408 320.784 55.7928 315.864C46.4448 310.944 34.932 310.55 25.2888 314.683C19.2864 317.34 13.5792 322.26 12.8904 328.853C14.8584 334.954 23.9112 339.972 29.9136 342.038C35.916 344.203 42.6072 346.466 45.5592 352.075C48.1176 356.897 47.1336 362.801 46.5432 368.311C45.5592 377.659 45.9528 387.106 47.6256 396.257C48.9048 403.145 51.0696 410.131 55.6944 415.445C62.976 423.71 74.9808 426.17 85.9032 424.99C96.8256 423.809 107.158 419.578 117.588 416.429C113.652 410.426 109.814 404.326 105.977 398.126Z" fill="#FFA192"/>
<g opacity="0.5">
<path opacity="0.5" d="M73.2096 345.679C73.7016 344.498 73.9968 343.219 74.292 342.038C74.1936 341.546 74.0952 340.956 73.9968 340.464C71.9304 330.132 65.0424 320.882 55.6944 315.962C46.3464 311.042 34.8336 310.649 25.1904 314.782C19.188 317.438 13.4808 322.358 12.792 328.951C14.76 335.052 23.8128 340.07 29.8152 342.137C35.8176 344.302 42.5088 346.565 45.4608 352.174C47.232 355.421 47.3304 359.16 47.0352 362.998C48.1176 363.194 49.2 363.194 50.2824 363.096C60.4176 362.506 69.5688 355.126 73.2096 345.679Z" fill="white"/>
</g>
<path d="M180.859 412.493C183.811 410.623 190.502 410.131 193.946 409.738C197.39 409.344 201.13 410.328 203.491 412.985C205.754 415.642 206.148 419.971 203.786 422.53C201.13 425.482 195.029 425.383 190.994 425.383C180.17 425.383 173.873 425.186 163.934 425.383" fill="#FFA192"/>
<path d="M163.934 425.383C163.934 425.383 164.23 425.383 164.722 425.285C165.312 425.285 166.001 425.285 166.886 425.187C168.756 425.088 171.511 425.088 174.857 425.088C178.301 425.088 182.237 425.088 186.763 425.088C189.026 425.088 191.388 425.088 193.75 425.088C196.111 424.99 198.67 424.793 201.031 423.907C202.212 423.415 203.196 422.727 203.983 421.742C204.672 420.758 204.967 419.578 205.066 418.397C205.164 416.035 204.18 413.772 202.507 412.394C200.834 410.918 198.768 410.23 196.898 410.033C194.93 409.738 193.159 410.131 191.388 410.23C188.042 410.525 185.287 411.017 183.516 411.509C182.63 411.804 181.942 412.001 181.45 412.198C180.958 412.394 180.761 412.493 180.761 412.493C180.761 412.493 180.761 412.493 180.958 412.394C181.056 412.296 181.253 412.198 181.45 412.099C181.942 411.902 182.532 411.607 183.516 411.312C185.287 410.722 188.042 410.23 191.388 409.836C193.061 409.639 194.93 409.246 196.898 409.541C198.866 409.738 201.031 410.525 202.802 412.001C204.574 413.477 205.656 415.937 205.558 418.397C205.459 419.676 205.164 420.955 204.377 422.038C203.59 423.12 202.507 423.907 201.228 424.399C198.768 425.383 196.21 425.482 193.75 425.58C191.29 425.58 188.928 425.58 186.763 425.58C182.335 425.482 178.301 425.482 174.857 425.482C171.511 425.482 168.756 425.482 166.886 425.482C166.001 425.482 165.214 425.482 164.722 425.482C164.23 425.482 163.934 425.482 163.934 425.383Z" fill="#484A4C"/>
<path d="M139.531 268.73C139.531 270.01 131.659 289.198 112.176 304.646C92.6928 320.194 76.5552 338.299 76.8504 362.407C77.1456 386.515 92.004 412.886 92.004 412.886L107.354 424.99L163.934 425.482C163.934 425.482 190.01 419.184 193.258 397.733C196.603 376.282 189.912 366.048 189.912 366.048L190.896 344.597C190.896 344.597 206.443 315.864 207.427 306.713C208.411 297.463 199.85 263.81 199.85 263.81L139.531 268.73Z" fill="#FFA192"/>
<path d="M171.216 331.018C171.413 331.018 170.33 333.478 170.921 337.414C171.118 339.382 171.905 341.645 172.987 344.006C174.07 346.368 175.644 348.828 177.612 351.19C179.482 353.551 181.548 355.716 183.319 357.684C185.09 359.652 186.665 361.522 187.846 363.096C189.026 364.67 189.912 366.146 190.404 367.13C190.699 367.622 190.798 368.016 190.994 368.311C191.093 368.606 191.191 368.705 191.191 368.705C191.191 368.705 190.896 368.213 190.306 367.229C189.715 366.245 188.83 364.966 187.649 363.391C186.468 361.817 184.894 360.046 183.122 358.078C181.351 356.11 179.383 354.043 177.415 351.583C175.447 349.222 173.873 346.663 172.79 344.302C171.708 341.842 171.019 339.578 170.822 337.512C170.626 335.544 170.724 333.871 171.019 332.789C171.118 332.198 171.314 331.805 171.314 331.51C171.216 331.116 171.216 331.018 171.216 331.018Z" fill="#484A4C"/>
<path d="M192.372 374.707C192.372 374.707 192.47 374.904 192.569 375.298C192.667 375.691 192.962 376.282 193.159 377.069C193.651 378.545 194.143 380.808 194.537 383.662C194.93 386.515 195.029 389.861 194.537 393.698C194.34 395.568 193.946 397.536 193.356 399.504C192.766 401.472 192.077 403.538 191.093 405.408C190.109 407.376 188.928 409.147 187.747 410.82C186.468 412.493 185.09 413.87 183.713 415.15C180.958 417.708 178.006 419.578 175.546 420.857C172.987 422.136 170.822 423.022 169.346 423.514C168.559 423.809 167.969 423.907 167.575 424.006C167.182 424.104 166.985 424.202 166.985 424.104C166.985 424.104 167.182 424.006 167.575 423.907C167.969 423.71 168.559 423.612 169.248 423.317C170.724 422.726 172.889 421.939 175.349 420.562C177.809 419.184 180.662 417.314 183.418 414.756C184.795 413.477 186.074 412.001 187.354 410.426C188.534 408.852 189.715 406.982 190.699 405.113C191.683 403.145 192.372 401.177 192.962 399.209C193.553 397.241 193.848 395.371 194.143 393.502C194.635 389.762 194.537 386.417 194.242 383.563C193.946 380.71 193.454 378.545 193.061 376.97C192.864 376.183 192.667 375.593 192.569 375.199C192.47 375.002 192.372 374.707 192.372 374.707Z" fill="#484A4C"/>
<path d="M108.338 424.891C108.338 424.891 107.846 424.694 106.862 424.301C106.37 424.104 105.878 423.809 105.19 423.514C104.599 423.12 103.812 422.825 103.123 422.234C102.336 421.742 101.549 421.25 100.663 420.562C99.7776 419.971 98.9904 419.184 98.0064 418.397C96.2352 416.822 94.3656 414.953 92.6928 412.788C91.02 410.623 89.6424 408.36 88.4616 406.294C87.9696 405.211 87.3792 404.227 86.9856 403.243C86.592 402.259 86.1984 401.374 85.9032 400.488C85.608 399.602 85.4112 398.815 85.2144 398.126C85.0176 397.438 84.9192 396.847 84.8208 396.355C84.624 395.371 84.5256 394.781 84.5256 394.781C84.5256 394.781 84.7224 395.273 85.0176 396.257C85.116 396.749 85.3128 397.339 85.5096 398.028C85.7064 398.717 85.9032 399.504 86.2968 400.291C86.592 401.078 86.9856 402.062 87.3792 402.948C87.7728 403.932 88.3632 404.916 88.8552 405.9C90.036 407.966 91.4136 410.131 93.0864 412.296C94.7592 414.461 96.6288 416.232 98.3016 417.905C99.1872 418.692 100.073 419.381 100.86 420.07C101.647 420.758 102.434 421.25 103.222 421.742C103.91 422.234 104.698 422.628 105.288 423.022C105.878 423.415 106.469 423.71 106.862 423.907C107.945 424.596 108.437 424.891 108.338 424.891Z" fill="#484A4C"/>
<path d="M134.71 356.995C134.71 356.995 134.316 356.798 133.726 356.306C133.135 355.814 132.25 355.126 131.266 354.24C129.199 352.37 126.444 349.517 123.984 345.778L124.378 345.581C124.968 347.45 125.657 349.517 126.247 351.682C126.739 353.256 127.231 354.732 127.625 356.208L127.822 356.995L127.231 356.503C123.295 353.453 120.934 349.615 119.851 346.762C119.261 345.286 118.966 344.105 118.769 343.318C118.67 342.924 118.67 342.629 118.572 342.334C118.572 342.137 118.572 342.038 118.572 342.038C118.572 342.038 118.67 342.432 118.966 343.318C119.162 344.105 119.556 345.286 120.146 346.663C121.327 349.418 123.689 353.158 127.526 356.11L127.133 356.405C126.641 354.929 126.247 353.453 125.755 351.878C125.066 349.714 124.476 347.746 123.886 345.778L123.394 344.203L124.378 345.581C126.838 349.32 129.494 352.174 131.462 354.043C132.446 355.027 133.234 355.716 133.824 356.208C134.414 356.7 134.71 356.995 134.71 356.995Z" fill="#484A4C"/>
<g opacity="0.3">
<path opacity="0.3" d="M170.724 332.198C170.822 331.214 172.397 331.214 172.987 332.1C173.479 332.887 173.381 333.97 173.282 334.954C172.987 340.661 176.53 345.778 180.17 350.107C183.811 354.437 187.944 358.865 189.125 364.375C186.173 361.03 182.729 358.078 179.482 355.027C176.234 351.878 173.184 348.533 171.413 344.4C169.642 340.267 169.346 335.347 171.413 331.411" fill="black"/>
</g>
<g opacity="0.3">
<path opacity="0.3" d="M170.232 423.219C174.758 423.415 179.482 422.923 183.418 420.857C187.452 418.791 190.699 414.855 190.994 410.328C189.814 410.328 188.731 410.427 187.55 410.427C183.221 416.035 177.218 420.463 170.527 422.825" fill="black"/>
</g>
<path d="M177.612 191.782C177.612 191.782 153.012 195.619 147.797 197.686C142.483 199.85 121.032 210.871 117.588 221.498C117.588 221.498 115.915 233.503 121.229 248.165C123.197 253.577 138.744 271.682 142.483 273.749C146.222 275.815 200.539 266.172 200.539 266.172C203.786 261.744 213.233 246.394 213.134 234.782C213.036 220.318 207.821 204.082 207.821 204.082L177.612 191.782Z" fill="#FFA192"/>
<path d="M196.505 166.788C196.013 166.69 189.42 166.788 184.5 178.006C179.482 189.223 173.971 197.882 173.971 197.882L207.919 205.754C207.919 205.754 206.05 187.452 204.18 180.958C202.212 174.562 200.342 167.378 196.505 166.788Z" fill="#FFA192"/>
<g opacity="0.6">
<path opacity="0.6" d="M186.074 236.554C175.152 232.224 162.458 234.192 151.733 239.014C145.73 241.67 139.925 245.606 137.268 251.609C132.938 261.449 138.842 273.06 147.108 279.948C155.374 286.738 165.804 290.477 174.758 296.381C183.713 302.285 191.683 311.928 190.502 322.654L190.994 344.597C191.88 342.924 206.443 315.667 207.427 306.713C208.313 298.841 202.114 273.257 200.342 265.877C201.13 264.893 202.409 262.826 203.885 260.858C204.082 250.133 196.111 240.49 186.074 236.554Z" fill="white"/>
</g>
<path d="M174.66 232.322C174.955 231.24 174.266 230.256 173.184 230.059C170.429 229.666 167.575 230.059 165.017 231.142C164.426 231.338 163.836 231.732 163.639 232.322C163.442 232.913 163.836 233.602 164.23 233.995C165.509 235.57 167.674 236.455 169.74 236.16C171.806 235.865 173.676 234.586 174.562 232.716C174.562 232.618 174.66 232.519 174.66 232.322Z" fill="#484A4C"/>
<path d="M175.546 244.622C175.644 244.721 174.562 246 172.594 246.492C170.626 246.984 169.051 246.295 169.15 246.197C169.15 246 170.724 246.492 172.495 246C174.266 245.508 175.447 244.426 175.546 244.622Z" fill="#484A4C"/>
<path d="M118.178 223.762C118.178 223.762 106.567 183.614 111.487 180.269C116.407 176.923 120.934 180.859 120.934 180.859L146.419 200.244L118.178 223.762Z" fill="#FFA192"/>
<g opacity="0.6">
<path opacity="0.6" d="M121.426 215.594C125.755 209.592 131.659 204.672 138.35 201.326C132.446 196.702 126.641 192.077 120.737 187.55C119.95 186.96 118.966 186.271 117.982 186.468C116.998 186.665 116.407 187.649 116.21 188.534C115.522 190.994 116.21 194.93 116.702 197.39C118.08 203.983 119.556 210.182 121.426 215.594Z" fill="white"/>
</g>
<g opacity="0.6">
<path opacity="0.6" d="M202.114 200.539C195.914 196.997 188.83 194.93 181.646 194.734C184.992 188.338 188.239 182.04 191.585 175.644C192.077 174.758 192.569 173.774 193.553 173.578C194.438 173.381 195.324 173.971 195.914 174.758C197.489 176.628 198.473 180.367 198.965 182.729C200.342 188.928 201.523 195.029 202.114 200.539Z" fill="white"/>
</g>
<path d="M205.459 257.71C205.459 257.71 205.361 257.906 205.262 258.3C205.066 258.694 204.77 259.284 204.475 259.973C203.786 261.449 202.606 263.417 200.834 265.68C198.965 267.845 196.406 270.305 193.061 272.076C192.175 272.47 191.29 272.962 190.404 273.257C189.42 273.552 188.534 273.946 187.452 274.241C186.468 274.536 185.386 274.733 184.303 274.93C183.221 275.028 182.138 275.225 181.056 275.225C179.088 275.323 177.12 275.126 175.25 274.831L175.349 274.339C178.202 275.52 180.662 277.39 182.532 279.259L182.926 279.653H182.434C177.218 279.653 172.987 278.669 170.134 277.685C168.658 277.193 167.575 276.701 166.886 276.406C166.493 276.209 166.198 276.11 166.001 276.012C165.804 275.914 165.706 275.815 165.706 275.815C165.706 275.815 166.099 275.914 166.886 276.209C167.674 276.504 168.756 276.898 170.232 277.39C173.086 278.275 177.317 279.161 182.434 279.161L182.237 279.554C180.367 277.685 178.006 275.914 175.152 274.733L172.987 273.847L175.349 274.339C177.12 274.634 179.088 274.831 181.056 274.733C182.138 274.733 183.221 274.634 184.303 274.438C185.386 274.241 186.37 274.142 187.354 273.847C188.338 273.65 189.322 273.257 190.207 272.962C191.093 272.568 191.978 272.174 192.864 271.781C196.21 270.01 198.768 267.746 200.638 265.582C202.409 263.318 203.688 261.35 204.377 259.973C204.77 259.284 204.967 258.792 205.262 258.3C205.262 257.906 205.459 257.71 205.459 257.71Z" fill="#484A4C"/>
<path d="M190.601 319.603C190.601 319.603 190.699 319.997 190.798 320.784C190.896 321.473 190.896 322.555 190.994 323.933C191.191 326.59 191.29 330.23 191.29 334.265C191.388 338.299 191.29 341.94 191.29 344.597C191.29 345.876 191.191 346.958 191.191 347.746C191.191 348.533 191.093 348.926 191.093 348.926C191.093 348.926 190.994 348.533 190.994 347.746C190.994 346.86 190.994 345.876 190.994 344.597C190.994 341.842 190.896 338.201 190.896 334.265C190.798 330.329 190.798 326.688 190.699 323.933C190.699 322.654 190.699 321.67 190.601 320.784C190.601 319.997 190.601 319.603 190.601 319.603Z" fill="#484A4C"/>
<path d="M153.11 230.059C153.11 232.519 151.142 234.487 148.682 234.487C146.222 234.487 144.254 232.519 144.254 230.059C144.254 227.599 146.222 225.631 148.682 225.631C151.142 225.631 153.11 227.599 153.11 230.059Z" fill="#484A4C"/>
<path d="M190.699 223.27C190.699 225.73 188.731 227.698 186.271 227.698C183.811 227.698 181.843 225.73 181.843 223.27C181.843 220.81 183.811 218.842 186.271 218.842C188.731 218.842 190.699 220.81 190.699 223.27Z" fill="#484A4C"/>
<path d="M183.418 233.503C183.418 233.503 183.516 234.094 183.319 234.979C183.122 235.963 182.827 237.341 181.942 238.915C181.745 239.309 181.45 239.702 181.056 239.998C180.662 240.293 180.269 240.588 179.777 240.883C178.793 241.375 177.514 241.375 176.431 241.08C175.841 240.883 175.25 240.588 174.758 240.293C174.266 239.998 173.774 239.604 173.282 239.21C172.298 238.423 171.413 237.439 170.527 236.357L171.019 236.258C171.019 236.357 170.921 236.455 170.921 236.554C170.232 239.21 168.461 241.474 166.296 242.556C165.214 243.146 164.033 243.343 162.95 243.146C161.868 243.048 160.884 242.654 160.195 242.162C158.621 241.178 157.834 239.899 157.342 239.014C157.145 238.62 156.948 238.226 156.85 237.931C156.751 237.636 156.751 237.538 156.751 237.538C156.751 237.538 156.948 238.03 157.538 238.915C158.03 239.702 158.916 240.883 160.392 241.867C161.081 242.359 162.065 242.654 163.049 242.753C164.033 242.851 165.115 242.654 166.099 242.162C168.166 241.08 169.74 238.915 170.429 236.455C170.429 236.357 170.527 236.258 170.527 236.16L170.626 235.668L170.921 236.062C171.708 237.144 172.594 238.03 173.578 238.817C174.07 239.21 174.562 239.604 175.054 239.899C175.546 240.194 176.038 240.49 176.53 240.686C178.694 241.474 180.761 240.194 181.646 238.817C182.532 237.341 182.926 235.963 183.122 235.078C183.319 233.995 183.319 233.503 183.418 233.503Z" fill="#484A4C"/>
<g opacity="0.6">
<path opacity="0.6" d="M163.836 194.045L157.637 195.226C158.03 197.784 159.014 200.342 160.294 202.606C160.786 203.393 161.474 204.278 162.458 204.18C163.049 204.18 163.442 203.786 163.738 203.294C164.033 202.802 164.131 202.31 164.23 201.72C164.722 199.26 164.525 196.603 163.836 194.045Z" fill="white"/>
</g>
<path d="M221.302 240.096C221.302 240.096 220.81 239.998 220.022 239.801C219.137 239.604 218.054 239.309 216.677 238.915C213.823 238.226 209.887 237.341 205.558 236.652C201.13 235.963 197.194 235.57 194.242 235.373C192.864 235.274 191.683 235.176 190.798 235.176C190.01 235.078 189.518 235.078 189.518 235.078C189.518 235.078 190.01 234.979 190.798 234.979C191.585 234.979 192.766 234.979 194.242 235.078C197.194 235.176 201.228 235.57 205.656 236.258C210.084 236.947 214.02 237.931 216.874 238.62C218.251 239.014 219.432 239.309 220.219 239.604C220.908 239.899 221.302 239.998 221.302 240.096Z" fill="#484A4C"/>
<path d="M224.746 232.027C224.746 232.027 224.254 232.126 223.466 232.027C222.482 232.027 221.302 232.027 219.826 232.027C216.775 232.027 212.544 232.027 207.919 232.126C203.294 232.224 199.063 232.519 196.013 232.716C194.537 232.814 193.356 232.913 192.372 232.913C191.486 233.011 191.093 233.011 191.093 232.913C191.093 232.913 191.585 232.814 192.372 232.716C193.258 232.618 194.438 232.421 195.914 232.322C198.965 232.027 203.196 231.732 207.821 231.634C212.446 231.535 216.677 231.535 219.727 231.732C221.203 231.83 222.482 231.83 223.368 231.929C224.254 231.929 224.746 232.027 224.746 232.027Z" fill="#484A4C"/>
<path d="M224.352 251.609C224.352 251.609 223.86 251.412 223.073 250.92C222.286 250.428 221.105 249.838 219.629 248.952C216.775 247.378 212.642 245.311 208.018 243.343C203.393 241.375 199.063 239.998 195.914 239.014C194.34 238.522 193.061 238.226 192.175 237.931C191.29 237.734 190.798 237.538 190.798 237.538C190.798 237.538 191.29 237.636 192.175 237.734C193.061 237.931 194.34 238.226 196.013 238.62C199.26 239.506 203.59 240.883 208.214 242.753C212.839 244.721 216.972 246.787 219.826 248.558C221.203 249.444 222.384 250.133 223.171 250.625C223.958 251.215 224.352 251.51 224.352 251.609Z" fill="#484A4C"/>
<path d="M146.714 245.902C146.714 245.902 146.321 246.197 145.632 246.59C144.845 247.082 143.861 247.673 142.582 248.46C140.023 250.034 136.481 252.199 132.742 254.758C129.002 257.316 125.657 259.776 123.295 261.547C122.213 262.433 121.229 263.122 120.442 263.712C119.753 264.204 119.359 264.499 119.359 264.499C119.359 264.499 119.654 264.106 120.343 263.614C120.934 263.023 121.918 262.236 123.098 261.35C125.46 259.481 128.707 257.021 132.545 254.364C136.284 251.806 139.826 249.641 142.483 248.165C143.762 247.476 144.845 246.886 145.632 246.492C146.321 246.098 146.714 245.902 146.714 245.902Z" fill="#484A4C"/>
<path d="M146.026 242.458C146.026 242.458 145.927 242.556 145.632 242.654C145.337 242.851 144.845 243.048 144.451 243.245C143.27 243.737 141.794 244.426 139.925 245.311C136.087 247.082 130.774 249.444 125.066 252.298C119.261 255.151 114.144 257.71 110.405 259.678C108.634 260.662 107.059 261.35 105.977 261.941C105.485 262.138 105.091 262.334 104.796 262.531C104.501 262.63 104.402 262.728 104.402 262.728C104.402 262.728 104.501 262.63 104.796 262.433C105.091 262.236 105.485 262.039 105.977 261.744C106.961 261.154 108.437 260.366 110.306 259.284C114.046 257.218 119.162 254.561 124.968 251.806C130.774 248.952 136.087 246.59 139.925 244.918C141.893 244.13 143.467 243.442 144.55 243.048C145.042 242.851 145.435 242.654 145.829 242.556C145.927 242.458 146.026 242.359 146.026 242.458Z" fill="#484A4C"/>
<path d="M140.614 240.982C140.614 240.982 140.023 241.178 139.039 241.474C138.055 241.769 136.579 242.162 134.71 242.654C131.069 243.638 126.149 245.114 120.737 247.181C115.325 249.149 110.602 251.314 107.256 252.986C105.583 253.774 104.206 254.462 103.222 254.954C102.238 255.446 101.746 255.643 101.746 255.643C101.746 255.643 102.238 255.348 103.123 254.758C104.009 254.266 105.386 253.478 107.059 252.691C110.405 251.018 115.128 248.755 120.54 246.787C125.952 244.819 130.97 243.343 134.611 242.458C136.481 241.966 137.957 241.67 138.941 241.474C140.023 240.982 140.614 240.883 140.614 240.982Z" fill="#484A4C"/>
<path d="M193.356 181.942C193.356 181.942 193.454 182.335 193.553 182.926C193.651 183.614 193.75 184.598 193.848 185.779C193.946 188.239 193.848 191.683 193.159 195.422L193.061 196.111L192.766 195.521C192.569 195.127 192.274 194.734 192.077 194.34C190.798 192.077 189.617 189.912 188.534 188.141L188.928 188.042C188.338 190.306 188.239 192.175 188.141 193.553C188.042 194.93 188.141 195.718 188.042 195.718C188.042 195.718 187.944 195.521 187.944 195.127C187.944 194.734 187.846 194.242 187.846 193.553C187.846 192.175 187.944 190.207 188.436 187.944L188.534 187.354L188.83 187.846C189.912 189.715 191.093 191.782 192.372 194.045C192.569 194.438 192.864 194.832 193.061 195.226L192.569 195.324C193.258 191.585 193.454 188.239 193.454 185.779C193.454 183.418 193.258 181.942 193.356 181.942Z" fill="#484A4C"/>
<path d="M128.904 203.885C128.806 203.983 127.526 201.425 124.673 198.67L125.066 198.571C124.87 200.244 124.673 202.114 124.476 204.082C124.476 204.377 124.378 204.574 124.378 204.869L124.279 205.754L123.886 204.869C122.508 201.917 121.426 199.26 120.54 197.39C119.753 195.521 119.261 194.34 119.359 194.242C119.458 194.242 120.048 195.324 120.934 197.194C121.819 199.063 123.098 201.72 124.378 204.574L123.886 204.672C123.886 204.377 123.984 204.18 123.984 203.885C124.181 201.917 124.476 200.047 124.673 198.374L124.771 197.882L125.066 198.178C126.542 199.555 127.526 201.031 128.117 202.015C128.609 203.196 128.904 203.885 128.904 203.885Z" fill="#484A4C"/>
<path d="M228.288 95.1528C226.517 90.8232 223.073 87.2808 219.137 84.8208C215.299 82.3608 210.674 80.8848 206.148 81.18C201.326 81.4752 196.603 83.9352 193.553 87.6744C191.683 89.9376 190.502 92.5944 189.912 95.448C188.042 93.6768 185.681 92.2008 183.221 91.4136C178.596 89.8392 173.381 90.3312 169.051 92.6928C165.017 94.8576 161.966 98.5968 159.998 102.73C157.932 106.961 157.046 111.782 157.834 116.309C158.818 122.114 161.671 127.92 166.001 131.856C170.527 136.087 176.628 138.744 182.63 140.318C192.667 142.975 205.754 146.124 205.754 146.124C205.754 146.124 213.233 136.284 220.219 128.609C224.45 124.082 228.19 118.572 229.764 112.57C231.24 106.961 230.551 100.565 228.288 95.1528Z" fill="#FE5FAA"/>
<path d="M323.933 135.202C324.72 132.938 324.622 130.38 323.933 128.018C323.244 125.755 321.965 123.59 320.095 122.114C318.127 120.54 315.47 119.95 313.01 120.343C311.534 120.54 310.157 121.229 308.878 122.114C308.779 120.737 308.386 119.458 307.697 118.277C306.418 116.112 304.253 114.439 301.793 113.947C299.53 113.455 297.07 113.75 294.806 114.734C292.543 115.718 290.575 117.194 289.296 119.261C287.722 121.819 286.836 125.066 287.131 128.117C287.426 131.266 288.902 134.414 290.674 137.071C293.626 141.598 297.66 147.305 297.66 147.305C297.66 147.305 303.958 146.026 309.271 145.435C312.42 145.14 315.766 144.254 318.422 142.483C320.981 140.81 322.949 138.055 323.933 135.202Z" fill="#FE5FAA"/>
</svg>
