<svg width="123" height="137" viewBox="0 0 123 137" fill="none" xmlns="http://www.w3.org/2000/svg">
<path d="M36.9475 59.9705C37.1213 58.2457 36.8079 56.3713 36.0202 54.8849C35.2325 53.3984 34.0702 51.9748 32.6585 51.3639C31.1343 50.5406 29.1485 50.6426 27.5002 51.3817C26.4888 51.7826 25.5899 52.3959 24.9659 53.2714C24.7281 52.3093 24.278 51.4599 23.6156 50.7232C22.4532 49.2997 20.7168 48.5891 18.9432 48.5784C17.3321 48.6175 15.5215 49.3068 14.1482 50.308C12.7749 51.3092 11.5768 52.8977 10.9158 54.4731C10.1051 56.536 9.89421 58.9608 10.6449 61.1472C11.2331 63.2837 12.7331 65.3443 14.3826 66.9174C17.082 69.7016 20.4936 73.06 20.4936 73.06C20.4936 73.06 24.6391 71.1311 28.2603 69.7527C30.4455 69.0006 32.618 67.7111 34.1908 66.0598C35.6011 64.3586 36.624 62.183 36.9475 59.9705Z" fill="#E0E0E0"/>
<path d="M121.628 104.801C121.715 103.939 121.59 103.189 121.14 102.34C120.802 101.703 120.302 101.016 119.54 100.604C118.778 100.193 117.866 100.268 117.067 100.557C116.643 100.782 116.218 101.008 115.906 101.445C115.844 101.07 115.619 100.646 115.231 100.171C114.731 99.4843 113.919 99.2352 113.057 99.1486C112.358 99.1118 111.509 99.5626 110.872 99.9007C110.185 100.401 109.611 101.114 109.362 101.927C109.063 102.902 108.876 104.089 109.114 105.052C109.352 106.014 110.127 106.963 110.789 107.699C112.001 108.96 113.651 110.533 113.651 110.533C113.651 110.533 115.561 109.519 117.322 108.992C118.333 108.592 119.395 108.028 120.181 107.202C120.98 106.914 121.492 105.826 121.628 104.801Z" fill="#E0E0E0"/>
<path d="M94.0122 37.2913C94.149 36.2663 93.9111 35.3042 93.461 34.4548C93.0109 33.6054 92.3485 32.8687 91.5864 32.4571C90.6619 31.9956 89.5878 32.0217 88.5764 32.4227C87.9894 32.5982 87.515 32.9862 87.1532 33.5864C86.978 32.9992 86.753 32.5745 86.3655 32.1C85.7031 31.3633 84.7786 30.9018 83.7045 30.9279C82.7928 31.0038 81.7814 31.4048 81.0947 31.9054C80.1958 32.5187 79.5718 33.3942 79.2727 34.3693C78.9236 35.507 78.6372 37.0195 78.9876 38.194C79.338 39.3684 80.2254 40.5298 81.0003 41.4788C82.4875 43.002 84.5744 44.8871 84.5744 44.8871C84.5744 44.8871 86.8594 43.8099 89.0446 43.0578C90.2683 42.5442 91.5419 41.868 92.5405 40.9296C93.2642 39.7291 93.8255 38.4788 94.0122 37.2913Z" fill="#E0E0E0"/>
<path d="M71.7496 113.326C72.1728 110.788 71.5219 108.277 70.3966 106.153C69.2713 104.03 67.7215 102.132 65.5477 101.109C63.3739 100.087 60.5761 99.9395 58.2911 101.017C56.8551 101.643 55.6941 102.532 54.5958 103.795C54.2953 102.458 53.6201 101.184 52.6827 100.185C50.9705 98.2371 48.6343 97.1647 46.1115 97.2797C43.8009 97.2821 41.3535 98.3094 39.5058 99.6985C37.4459 101.2 35.7734 103.177 34.8631 105.565C33.7532 108.603 33.4056 112.053 34.2815 114.989C35.1077 118.087 37.27 120.885 39.4195 123.144C43.2186 126.977 48.1672 131.697 48.1672 131.697C48.1672 131.697 54.0108 128.866 59.1805 127.074C62.1649 126.033 65.3488 124.343 67.7079 121.866C69.9673 119.714 71.3393 116.401 71.7496 113.326Z" fill="#E0E0E0"/>
<path d="M72.1569 83.043C72.2067 82.8805 72.8563 83.0798 73.9304 83.0537C75.0045 83.0276 76.3906 82.5638 77.6015 81.5127C78.8124 80.4617 79.4235 79.0488 79.7227 78.0737C80.0219 77.0985 79.8966 76.3488 80.059 76.3986C80.2214 76.4485 80.3966 77.0357 80.3723 78.273C80.1856 79.4605 79.687 81.0857 78.2638 82.2494C76.8407 83.4132 75.1298 83.7774 73.9432 83.5911C72.7566 83.4049 72.1569 83.043 72.1569 83.043Z" fill="#E0E0E0"/>
<path d="M76.4586 92.1872C76.2962 92.1373 76.4458 91.6498 76.3703 90.7375C76.2949 89.8253 76.1069 88.7006 75.3818 87.5891C74.6568 86.4775 73.6197 85.8037 72.8077 85.5545C72.0456 85.1429 71.5086 85.1559 71.5585 84.9934C71.6083 84.8309 72.1453 84.8179 73.1696 84.9543C74.144 85.2532 75.3933 85.8144 76.2308 87.1383C77.0684 88.4622 77.2065 89.7493 77.0698 90.7743C76.8204 91.5869 76.4586 92.1872 76.4586 92.1872Z" fill="#E0E0E0"/>
<path d="M86.0844 85.7158C86.0345 85.8783 85.3351 85.8415 84.4106 85.38C83.4861 84.9186 82.3864 83.8699 81.7611 82.4333C81.1856 80.8341 81.472 79.3216 82.096 78.4461C82.5576 77.5208 83.032 77.1329 83.1944 77.1827C83.3568 77.2325 82.9949 77.8328 82.7456 78.6454C82.4963 79.458 82.2597 80.808 82.7226 82.1948C83.1856 83.5816 84.1727 84.418 84.885 84.9921C85.6471 85.4038 86.1343 85.5533 86.0844 85.7158Z" fill="#E0E0E0"/>
<path d="M80.3561 93.3828C80.3062 93.5453 79.7564 93.0209 79.4687 92.2214C79.1809 91.4218 79.0926 89.9721 79.9787 88.8214C80.8648 87.6707 82.0885 87.1571 83.0002 87.0812C83.9119 87.0052 84.5117 87.3671 84.2994 87.4798C84.2495 87.6423 83.7623 87.4928 82.9632 87.7811C82.2139 87.9068 81.1526 88.4703 80.5286 89.3458C79.9046 90.2213 79.718 91.4087 79.8433 92.1585C80.3433 92.8454 80.5683 93.2701 80.3561 93.3828Z" fill="#E0E0E0"/>
<path d="M23.0852 19.4419C23.1351 19.2794 23.7847 19.4787 24.8588 19.4527C25.9329 19.4266 27.319 18.9627 28.5299 17.9117C29.7408 16.8606 30.3519 15.4477 30.6511 14.4726C30.9503 13.4975 30.825 12.7477 30.9874 12.7976C31.1498 12.8474 31.325 13.4346 31.3007 14.6719C31.1141 15.8594 30.6154 17.4846 29.1923 18.6484C27.7691 19.8121 26.0582 20.1763 24.8716 19.99C23.6351 19.9663 23.0354 19.6045 23.0852 19.4419Z" fill="#E0E0E0"/>
<path d="M27.2245 28.5363C27.0621 28.4864 27.2117 27.9989 27.1363 27.0866C27.0608 26.1744 26.8728 25.0497 26.1478 23.9382C25.4227 22.8266 24.3857 22.1528 23.5738 21.9037C22.8116 21.492 22.2746 21.5051 22.3244 21.3426C22.3743 21.18 22.9114 21.167 23.9356 21.3034C24.91 21.6024 26.1592 22.1635 26.9968 23.4874C27.8344 24.8113 27.9725 26.0984 27.8357 27.1234C27.6989 28.1483 27.3869 28.5861 27.2245 28.5363Z" fill="#E0E0E0"/>
<path d="M37.0128 22.1147C36.963 22.2772 36.2635 22.2405 35.339 21.779C34.4145 21.3175 33.3149 20.2688 32.6895 18.8322C32.1141 17.233 32.4005 15.7205 33.0245 14.8451C33.486 13.9197 33.9604 13.5318 34.1228 13.5816C34.2852 13.6315 33.9233 14.2317 33.674 15.0444C33.4247 15.857 33.1882 17.207 33.6511 18.5938C34.114 19.9805 35.1012 20.8169 35.8134 21.391C36.5755 21.8027 37.0627 21.9522 37.0128 22.1147Z" fill="#E0E0E0"/>
<path d="M31.2845 29.7817C31.2346 29.9442 30.6848 29.4199 30.3971 28.6203C30.1093 27.8208 30.021 26.3711 30.9071 25.2204C31.7932 24.0697 33.017 23.556 33.9287 23.4801C34.8404 23.4042 35.4401 23.766 35.2278 23.8787C35.1779 24.0412 34.6907 23.8917 33.8916 24.18C33.1423 24.3057 32.081 24.8692 31.457 25.7447C30.833 26.6202 30.6464 27.8077 30.7717 28.5574C31.1093 29.1945 31.2845 29.7817 31.2845 29.7817Z" fill="#E0E0E0"/>
<path d="M8.7498 110.178L9.16286 111.727C9.52605 113.439 10.4762 114.976 11.6884 116.237L12.7881 117.285L11.2396 117.699C9.52875 118.063 7.99306 119.015 6.7323 120.228L5.68382 121.329L5.27076 119.78C4.90757 118.068 3.95744 116.532 2.74521 115.271L1.64553 114.222L3.19399 113.808C4.90487 113.444 6.44056 112.493 7.70131 111.279L8.7498 110.178Z" fill="#F5F5F5"/>
<path d="M108.201 59.9604L108.614 61.5097C108.977 63.2215 109.927 64.7578 111.14 66.0188L112.239 67.0675L110.691 67.4815C108.98 67.8457 107.444 68.7971 106.184 70.0107L105.135 71.1116L104.722 69.5623C104.359 67.8504 103.409 66.3142 102.197 65.0531L101.097 64.0044L102.645 63.5904C104.356 63.2262 105.892 62.2749 107.153 61.0613L108.201 59.9604Z" fill="#F5F5F5"/>
<path d="M60.7065 1.64423L61.1195 3.19353C61.4827 4.90536 62.4329 6.44164 63.6451 7.70268L64.7448 8.75136L63.1963 9.16537C61.4854 9.52956 59.9497 10.4809 58.689 11.6945L57.6405 12.7954L57.2274 11.2461C56.8642 9.53427 55.9141 7.99802 54.7019 6.73698L53.6022 5.68829L55.1507 5.27427C56.8615 4.91009 58.3972 3.95868 59.658 2.74511L60.7065 1.64423Z" fill="#F5F5F5"/>
</svg>
