<svg width="168" height="415" viewBox="0 0 168 415" fill="none" xmlns="http://www.w3.org/2000/svg">
<path d="M86.8739 414.13C131.554 414.13 167.774 405.041 167.774 393.83C167.774 382.619 131.554 373.53 86.8739 373.53C42.194 373.53 5.97388 382.619 5.97388 393.83C5.97388 405.041 42.194 414.13 86.8739 414.13Z" fill="#E3E3E3"/>
<path d="M124.874 354.33C126.974 362.53 129.374 370.63 131.874 378.63C132.574 380.73 133.874 384.53 136.774 384.33C138.974 384.13 139.674 381.43 141.074 380.03C144.474 376.63 150.574 380.83 149.874 374.93C147.874 358.13 147.174 331.73 142.974 317.23C141.774 312.93 138.674 315.63 135.574 312.43C129.374 306.23 119.474 310.33 117.774 318.63C117.174 321.43 117.774 324.23 118.374 327.03C120.374 336.13 122.574 345.23 124.874 354.33Z" fill="#FFC280"/>
<path d="M151.574 369.93C149.774 370.43 147.974 370.93 146.074 371.33C144.474 371.63 142.874 371.93 141.274 372.03C139.674 372.13 138.174 372.13 136.574 372.13C134.174 372.13 131.674 372.13 129.274 372.63C127.774 373.13 125.774 378.33 124.974 379.63C122.674 383.23 119.974 386.03 116.374 388.43C111.874 391.53 103.374 395.03 100.574 399.93C97.1739 405.73 112.874 403.13 115.874 402.23C128.474 398.83 141.074 395.43 153.474 391.53C156.174 390.63 157.674 387.73 156.774 384.93C154.974 379.53 152.374 371.63 151.874 370.63C151.874 370.33 151.674 370.13 151.574 369.93Z" fill="#443748"/>
<path d="M95.7739 74.03C79.9739 71.93 83.8739 50.53 84.6739 39.53C84.6739 38.93 84.7739 38.33 84.7739 37.73C84.8739 33.73 85.0739 28.73 87.0739 25.23C89.2739 21.33 94.4739 16.33 97.0739 22.33C99.2739 27.43 97.5739 33.73 102.174 37.83C105.074 40.43 110.274 41.53 110.674 45.43C110.774 46.33 110.574 47.33 110.674 48.33C110.974 51.23 114.174 52.93 116.974 53.93C124.474 56.73 123.874 61.73 117.774 66.23C111.674 70.73 103.774 75.03 95.7739 74.03Z" fill="#EE4E2F"/>
<path d="M1.67392 98.8299C2.17391 97.8299 2.8739 96.9299 3.4739 96.1299C6.5739 92.1299 11.1739 88.63 15.2739 85.73C20.6739 81.93 26.0739 78.13 31.2739 74.23C35.8739 70.83 40.6739 66.43 46.0739 64.33C49.0739 63.13 52.7739 61.03 56.0739 62.33C59.1739 63.43 61.7739 66.1299 63.1739 69.0299C64.6739 72.0299 65.0739 75.43 65.0739 78.73C65.0739 81.23 64.6739 83.9299 63.3739 86.1299C61.5739 89.2299 58.2739 91.0299 54.9739 92.6299C50.8739 94.6299 46.8739 96.73 42.5739 98.53C37.2739 100.83 32.2739 103.93 27.7739 107.53C24.6739 110.03 21.5739 112.93 17.6739 113.93C14.4739 114.73 11.4739 113.73 9.17391 111.43C7.07392 109.43 4.67391 109.43 2.27391 107.53C1.57391 107.03 0.973909 106.43 0.573909 105.63C0.0739089 104.73 0.0739059 103.63 0.273906 102.53C0.573906 101.23 1.07392 99.9299 1.67392 98.8299Z" fill="#FFC280"/>
<path d="M48.6739 357.63C49.6739 366.03 50.8739 374.33 52.1739 382.73C52.5739 384.93 53.3739 388.93 56.2739 389.03C58.4739 389.13 59.5739 386.63 61.1739 385.43C65.0739 382.63 70.4739 388.43 70.5739 382.53C70.8739 365.63 73.9739 338.43 71.9739 323.43C71.3739 319.03 67.9739 321.23 65.2739 317.63C59.9739 310.63 49.5739 313.33 46.7739 321.23C45.8739 323.93 45.9739 326.83 46.1739 329.63C46.7739 339.03 47.5739 348.33 48.6739 357.63Z" fill="#FFC280"/>
<path d="M51.9739 127.83C50.9739 133.53 49.9739 139.33 48.9739 145.03C48.8739 145.43 48.8739 145.93 49.1739 146.23C49.3739 146.43 49.5739 146.43 49.7739 146.43C66.8739 149.03 83.8739 151.63 100.974 154.23C102.074 154.43 103.274 154.53 104.474 154.33C104.774 154.23 105.074 154.13 105.274 153.93C105.574 153.53 105.474 152.93 105.374 152.43C104.574 147.93 108.174 144.13 108.874 139.93C109.374 136.83 108.074 131.43 105.074 129.73C103.374 128.83 101.174 129.03 99.3739 129.03C96.3739 129.03 93.2739 128.93 90.2739 128.93C84.2739 128.83 78.2739 128.73 72.2739 128.53C65.4739 128.33 58.6739 128.13 51.9739 127.83Z" fill="#FFA192"/>
<path d="M83.9739 44.3299C83.7739 49.0299 86.7739 52.5299 87.0739 56.8299C87.3739 61.1299 84.4739 67.0299 81.4739 69.9299C78.2739 73.0299 73.7739 74.3299 69.3739 74.4299C64.9739 74.5299 60.5739 73.4299 56.3739 72.4299C49.8739 70.8299 40.7739 65.4299 45.6739 57.2299C48.3739 52.7299 55.3739 51.3299 56.3739 46.1299C56.8739 43.7299 55.8739 40.9299 57.1739 38.8299C58.4739 36.7299 61.4739 36.4299 63.3739 34.8299C66.8739 31.6299 66.3739 26.2299 67.7739 21.7299C69.0739 17.5299 71.9739 14.4299 76.1739 15.4299C81.9739 16.8299 84.0739 23.7299 85.0739 28.9299C85.2739 30.2299 85.1739 31.5299 85.0739 32.8299C84.4739 36.7299 84.0739 40.5299 83.9739 44.3299Z" fill="#EE4E2F"/>
<path d="M124.174 343.03C127.574 343.23 130.974 343.53 134.374 343.23C137.474 343.03 140.474 342.53 143.474 341.83C145.074 341.43 146.674 341.03 148.274 340.53C147.474 324.23 146.674 307.83 145.974 291.53C145.474 281.43 144.974 271.23 143.274 261.33C142.174 254.73 139.974 248.43 138.374 241.93C136.874 235.83 137.174 229.43 136.474 223.13C134.874 209.73 132.674 196.33 128.874 183.43C125.374 171.83 120.574 160.53 113.874 150.33C110.574 145.43 106.974 140.73 102.774 136.53C101.274 134.93 92.4739 128.53 93.2739 125.93C92.0739 129.83 85.7739 129.73 82.0739 131.53C78.2739 133.33 76.1739 137.33 75.6739 141.53C75.2739 144.73 73.7739 147.53 73.1739 150.73C72.4739 154.43 72.4739 158.53 72.1739 162.23C71.5739 170.83 71.7739 179.53 73.6739 187.93C75.6739 196.73 79.5739 205.03 82.6739 213.53C85.8739 222.23 88.2739 231.23 90.4739 240.13C92.3739 247.93 95.0739 255.13 96.7739 262.93C102.474 289.63 109.174 317.83 120.374 342.83C121.674 342.83 122.974 342.93 124.174 343.03Z" fill="#FFA192"/>
<path d="M45.4739 341.73C46.0739 341.73 46.5739 341.83 47.1739 341.83C47.9739 341.93 48.8739 341.93 49.6739 342.03C53.0739 341.73 56.4739 341.73 59.8739 341.93C64.3739 341.33 70.5739 342.33 75.0739 341.13C76.9739 302.13 78.5739 262.43 81.2739 222.73C82.0739 211.23 82.7739 199.63 82.0739 188.13C81.4739 177.53 80.3739 166.83 80.3739 156.33C80.3739 153.13 81.7739 148.33 81.0739 145.33C80.2739 141.73 76.6739 139.23 75.4739 135.63C74.0739 131.33 71.1739 127.33 66.9739 125.53C63.8739 124.23 59.0739 126.63 56.2739 127.83C51.5739 129.83 50.1739 132.13 47.6739 136.53C42.6739 145.43 38.7739 155.03 36.1739 164.83C29.0739 191.23 33.6739 216.93 35.1739 243.53C35.4739 249.13 35.0739 254.83 34.8739 260.53C34.6739 267.93 44.5739 341.53 45.4739 341.73Z" fill="#FFA192"/>
<path d="M56.5739 68.6299C59.5739 79.3299 70.4739 84.9299 80.9739 84.7299C81.0739 84.7299 81.1739 84.7299 81.1739 84.7299C81.3739 84.7299 81.5739 84.7299 81.7739 84.8299C87.1739 85.1299 93.0739 83.3299 96.9739 79.7299C98.8739 78.2299 100.074 76.2299 100.874 74.0299V73.9299C100.974 73.7299 100.974 73.6299 101.074 73.4299C101.474 71.9299 103.274 66.8299 102.674 65.5299C102.274 64.6299 101.174 64.3299 100.174 64.1299C96.4739 63.1299 92.9739 61.6299 89.7739 59.5299C89.1739 59.1299 88.4739 58.6299 88.1739 57.9299C87.8739 57.3299 87.8739 56.6299 87.9739 55.9299C88.2739 48.0299 88.3739 40.0299 88.7739 32.1299C88.9739 29.3299 89.9739 27.1299 88.4739 24.6299C87.0739 22.3299 84.9739 21.5299 82.5739 20.8299C82.1739 20.7299 81.7739 20.6299 81.3739 20.5299C74.7739 19.2299 70.1739 23.5299 68.1739 29.4299C66.1739 35.2299 66.3739 39.5299 69.2739 44.9299C69.6739 45.6299 70.0739 46.3299 70.1739 47.1299C70.2739 47.7299 70.1739 48.4299 70.0739 49.0299C69.7739 50.9299 69.4739 52.7299 69.0739 54.6299C68.1739 60.1299 63.1739 61.6299 58.0739 61.8299C56.4739 61.9299 55.5739 62.2299 55.0739 62.8299C54.1739 64.0299 55.5739 66.4299 56.5739 68.6299Z" fill="#FFC280"/>
<path d="M73.4854 37C73.5469 37 73.5469 37 73.6083 37C73.7312 36.9385 73.7927 36.7542 73.7312 36.6313C73.2396 35.1564 74.2843 33.5586 74.2843 33.4972C74.4072 33.3743 74.3458 33.1899 74.2229 33.067C74.0999 32.9441 73.9156 33.0055 73.7927 33.1284C73.7312 33.1899 72.5636 35.0335 73.1782 36.8156C73.2396 36.9385 73.3625 37 73.4854 37Z" fill="#484A4C"/>
<path d="M79.3604 32.8676C79.5587 32.8416 79.744 32.7164 79.8041 32.4059L80.1858 29.9352C80.1597 29.7369 80.1467 29.6378 80.0215 29.4525L78.7747 28.4059C78.5504 28.2336 78.2529 28.2727 78.0807 28.497C77.9084 28.7213 77.9474 29.0188 78.1718 29.191L79.0951 30.0784L78.7866 32.3378C78.7265 32.6482 78.9508 32.8205 79.2613 32.8806C79.3604 32.8676 79.3604 32.8676 79.3604 32.8676Z" fill="#484A4C"/>
<path d="M70.9699 33.3411C71.1682 33.3151 71.3535 33.1899 71.4136 32.8795L71.7952 30.4088C71.7692 30.2105 71.7562 30.1113 71.631 29.926L70.7206 29.1378C70.4963 28.9656 70.1989 29.0046 70.0266 29.2289C69.8543 29.4533 69.8934 29.7507 70.1177 29.923L70.7046 30.5519L70.396 32.8113C70.4221 33.0096 70.5603 33.2941 70.8707 33.3542L70.9699 33.3411Z" fill="#484A4C"/>
<path d="M57.8739 62.4299C59.9739 65.1299 58.5739 70.0299 61.0739 72.6299C63.2739 74.9299 67.5739 79.9299 80.2739 79.0299C88.5739 78.4299 96.6739 68.5299 99.5739 64.4299C101.674 64.8299 105.274 66.2299 105.874 66.5299C106.774 68.1299 105.674 86.5299 106.374 94.9299C107.374 106.93 106.274 118.33 107.374 130.93L51.8739 131.93C51.8739 126.93 51.4739 122.03 51.1739 117.03C50.8739 111.23 52.2739 104.73 50.3739 99.1299C47.3739 100.13 44.3739 101.03 41.4739 102.03C40.9739 102.23 40.4739 102.33 39.9739 102.13C39.5739 101.93 39.2739 101.53 39.0739 101.13C34.7739 92.9299 30.4739 84.7299 26.2739 76.6299C31.2739 72.6299 36.6739 69.1299 42.3739 66.0299C45.9739 64.0299 53.4739 58.5299 57.4739 61.8299C57.4739 62.0299 57.6739 62.2299 57.8739 62.4299Z" fill="#70518D"/>
<path d="M95.8739 142.93C96.1739 143.63 99.0739 146.93 99.6739 147.13C105.774 148.23 104.474 147.43 105.174 147.33C115.874 138.33 127.674 110.83 129.874 98.5299C130.674 93.8299 129.574 88.8299 128.474 84.1299C127.974 82.0299 124.574 75.1299 119.374 71.3299C116.474 69.3299 111.774 67.4299 104.974 66.4299C103.774 68.3299 103.174 70.9299 102.074 73.7299C100.574 77.7299 98.9739 81.8299 98.7739 86.2299C98.6739 88.8299 98.9739 91.6299 100.274 93.9299C100.874 94.9299 102.474 95.9299 102.874 96.9299C103.574 98.5299 102.474 100.33 101.774 101.93C97.8739 110.83 95.3739 120.33 94.4739 129.93C94.0739 134.43 94.2739 138.83 95.8739 142.93Z" fill="#FFC280"/>
<path d="M110.174 128.73C113.374 133.83 112.774 140.43 108.474 144.73C106.974 146.23 105.274 147.53 103.274 148.33C102.674 148.53 102.174 148.73 101.574 148.73C100.874 148.73 100.174 148.33 99.5739 147.93C90.1739 142.23 82.8739 133.43 77.6739 123.73C72.4739 114.03 68.2739 101.83 64.4739 92.0299C64.3739 91.7299 72.1739 85.0299 73.5739 84.7299C73.5739 84.7299 79.1739 91.6298 81.9739 94.8298C90.4739 104.33 102.074 115.23 109.974 128.43C110.074 128.53 110.074 128.63 110.174 128.73Z" fill="#FFC280"/>
<path d="M22.7739 101.73C23.6739 102.63 24.4739 103.53 25.1739 104.43C31.3739 112.63 39.8739 119.13 47.2739 126.13C47.5739 126.43 47.8739 126.73 47.9739 127.03C48.9739 129.43 45.5739 137.53 42.2739 136.83C33.8739 134.83 25.1739 130.33 18.1739 125.53C13.8739 122.53 9.47391 119.63 5.87391 115.73C2.67391 112.33 -0.826083 106.83 0.173917 101.93C1.57392 95.1299 10.2739 94.3299 15.4739 96.8299C18.2739 98.0299 20.6739 99.7299 22.7739 101.73Z" fill="#FFC280"/>
<path d="M66.3739 69.73C69.3739 72.43 71.4739 76.13 70.5739 80.23C70.1739 82.23 67.0739 81.73 67.4739 79.73C68.1739 76.73 66.5739 74.13 64.3739 72.13C62.8739 70.83 64.8739 68.33 66.3739 69.73Z" fill="#443748"/>
<path d="M52.9739 91.0299H63.5739C64.7739 91.0299 65.7739 90.0299 65.7739 88.8299V62.2299C65.7739 61.0299 64.7739 60.0299 63.5739 60.0299H52.1739C51.3739 60.0299 50.7739 60.6299 50.7739 61.4299V88.8299C50.7739 90.0299 51.7739 91.0299 52.9739 91.0299Z" fill="white"/>
<path d="M53.7739 68.8299C58.4739 69.8299 62.6739 71.13 66.9739 74.53C69.5739 76.63 67.0739 78.5299 65.2739 77.3299C61.4739 74.8299 57.3739 73.0299 52.8739 72.0299C50.8739 71.5299 51.7739 68.3299 53.7739 68.8299Z" fill="#FFC280"/>
<path d="M50.3739 72.0299C55.7739 73.4299 60.7739 75.7299 65.7739 78.1299C67.6739 79.0299 65.9739 81.9299 64.0739 80.9299C59.3739 78.6299 54.5739 76.4299 49.4739 75.1299C47.4739 74.7299 48.2739 71.5299 50.3739 72.0299Z" fill="#FFC280"/>
<path d="M50.5739 76.63C51.5739 76.43 52.6739 76.83 53.6739 77.13C54.8739 77.53 56.0739 77.93 57.2739 78.43C59.5739 79.33 61.7739 80.53 63.9739 81.83C65.7739 82.93 64.0739 85.83 62.2739 84.63C60.4739 83.53 58.6739 82.53 56.7739 81.73C55.8739 81.33 54.8739 81.03 53.9739 80.63C53.4739 80.43 53.0739 80.33 52.5739 80.23C52.4739 80.23 51.5739 80.03 51.4739 79.93C50.9739 80.03 50.3739 79.93 49.9739 79.53C49.9739 79.53 49.9739 79.53 49.9739 79.43C49.0739 78.43 49.2739 76.83 50.5739 76.63Z" fill="#FFC280"/>
<path d="M52.7739 81.1299C56.3739 82.2299 59.3739 83.7299 62.5739 85.7299C64.3739 86.8299 62.7739 89.6299 60.8739 88.5299C57.8739 86.7299 55.1739 85.3299 51.8739 84.2299C49.8739 83.7299 50.7739 80.5299 52.7739 81.1299Z" fill="#FFC280"/>
<path d="M59.4739 85.4299C59.1739 85.8299 59.0739 86.4299 59.1739 86.9299C59.1739 87.6299 59.5739 88.2299 59.9739 88.7299C61.4739 90.8299 63.2739 92.9298 65.7739 93.8298C67.9739 94.5298 70.5739 94.1299 72.4739 92.7299C74.3739 91.3299 75.5739 91.2299 75.3739 88.9299C75.2739 87.9299 74.1739 85.0298 73.7739 84.1298C72.7739 81.7298 69.4739 75.1299 66.3739 74.5299C64.1739 74.0299 62.7739 81.2299 59.4739 85.4299Z" fill="#FFC280"/>
<path d="M56.6739 64.33C56.6739 64.93 57.1739 65.33 57.6739 65.33C58.2739 65.33 58.6739 64.83 58.6739 64.33C58.6739 63.73 58.1739 63.33 57.6739 63.33C57.0739 63.33 56.6739 63.73 56.6739 64.33Z" fill="#70518D"/>
<path d="M129.974 105.73C125.074 104.83 120.174 104.63 115.274 103.93C109.174 103.13 103.074 102.03 96.9739 101.53L96.8739 101.43C96.5739 101.03 96.4739 100.43 96.3739 99.9299C94.7739 88.5299 97.5739 76.5299 99.0739 65.2299C99.0739 64.9299 99.1739 64.5299 99.4739 64.3299C99.7739 64.1299 100.174 64.1299 100.474 64.2299C106.574 65.2299 112.974 66.3299 118.174 69.7299C118.674 70.0299 119.174 70.4299 119.674 70.8299C122.674 73.6299 125.174 76.9299 126.774 79.9299C131.074 88.1299 130.874 96.9299 130.274 105.83C130.174 105.73 130.074 105.73 129.974 105.73Z" fill="#70518D"/>
<path d="M45.2739 126.63C46.5739 126.53 47.9739 126.63 49.2739 126.93C50.3739 127.13 51.4739 127.33 52.5739 127.53C53.8739 127.73 55.8739 128.03 56.6739 129.13C57.5739 130.33 57.1739 132.43 56.8739 133.83C56.4739 135.93 55.9739 138.13 54.7739 139.93C53.0739 142.53 50.5739 143.23 47.7739 141.93C46.2739 141.23 44.4739 140.63 43.2739 139.63C42.1739 138.73 41.0739 137.63 39.9739 136.73C39.3739 136.23 38.7739 135.73 38.3739 135.03C37.8739 134.13 37.7739 132.93 38.0739 131.93C38.3739 130.93 38.9739 129.93 39.7739 129.13C41.4739 127.43 43.2739 126.73 45.2739 126.63Z" fill="#FFC280"/>
<path d="M48.9739 138.93C51.5739 140.03 54.1739 140.73 56.9739 141.23C58.3739 141.43 59.8739 141.63 61.2739 141.73C62.3739 141.83 63.6739 141.73 64.6739 142.23C64.9739 142.43 65.2739 142.63 65.3739 142.93C65.4739 143.43 64.9739 143.93 64.4739 144.13C62.0739 145.43 58.8739 144.83 56.2739 144.33C53.4739 143.83 50.7739 143.03 48.0739 141.93C46.1739 141.23 46.9739 138.13 48.9739 138.93Z" fill="#FFC280"/>
<path d="M53.4739 131.63C56.5739 132.33 59.6739 132.83 62.7739 133.33C64.3739 133.53 65.9739 133.83 67.5739 134.03C68.3739 134.13 70.6739 134.23 71.0739 135.13C71.2739 135.73 70.7739 136.33 70.2739 136.63C67.8739 137.83 64.4739 136.83 61.9739 136.43C58.8739 135.93 55.7739 135.33 52.6739 134.73C50.5739 134.23 51.3739 131.13 53.4739 131.63Z" fill="#FFC280"/>
<path d="M55.2739 136.23C57.5739 136.83 59.9739 137.23 62.3739 137.53C64.2739 137.73 66.5739 137.53 68.3739 138.23C68.8739 138.43 69.1739 138.83 69.1739 139.33C69.1739 140.03 68.3739 140.43 67.7739 140.63C63.6739 141.83 58.3739 140.33 54.3739 139.43C52.3739 138.83 53.2739 135.73 55.2739 136.23Z" fill="#FFC280"/>
<path d="M52.2739 127.63C54.8739 128.03 57.3739 128.43 59.9739 128.83C62.4739 129.23 64.9739 129.33 67.3739 129.83C68.0739 130.03 70.0739 130.43 69.6739 131.63C69.4739 132.23 68.8739 132.43 68.2739 132.53C66.9739 132.73 65.5739 132.53 64.2739 132.23C62.0739 131.83 59.7739 131.63 57.5739 131.43C55.4739 131.33 53.5739 130.93 51.4739 130.63C49.3739 130.53 50.2739 127.43 52.2739 127.63Z" fill="#FFC280"/>
<path d="M5.17392 100.53C4.07392 100.63 3.17391 101.33 2.77391 102.33C2.37391 103.33 2.57392 104.53 3.17392 105.33" stroke="#484A4D" stroke-miterlimit="10"/>
<path d="M106.374 142.43C105.974 143.63 105.074 144.63 103.874 144.93C102.674 145.33 101.374 145.13 100.374 144.43" stroke="#484A4D" stroke-miterlimit="10"/>
<path d="M76.2739 40.0299C75.3739 41.0299 73.8739 41.5299 72.4739 41.2299C71.0739 40.9299 69.8739 39.9299 69.4739 38.6299" fill="white"/>
<path d="M109.374 46.5299C109.474 46.8299 109.574 47.2299 109.574 47.5299C110.774 55.2299 97.0739 60.6299 91.6739 55.7299C89.8739 54.1299 89.2739 51.5299 89.1739 49.1299C89.0739 46.7299 89.3739 44.3299 89.2739 41.9299C89.1739 39.3299 87.9739 37.1299 87.6739 34.6299C87.4739 32.8299 86.4739 31.3299 85.0739 30.1299C82.3739 27.7299 78.6739 26.7299 75.2739 25.6299C71.8739 24.5299 64.4739 22.0299 64.7739 17.1299C64.8739 15.5299 66.3739 14.3299 67.9739 14.0299C69.4739 13.6299 71.1739 13.8299 72.6739 13.8299C76.2739 13.8299 79.8739 12.7299 83.4739 12.4299C80.8739 11.4299 79.8739 7.92991 81.0739 5.32991C82.1739 2.72991 84.8739 1.22991 87.5739 0.429907C90.7739 -0.370093 94.4739 -0.170094 96.8739 2.02991C97.9739 2.92991 98.7739 4.32991 98.4739 5.72991C98.2739 7.02991 97.1739 8.02991 96.1739 8.92991C94.7739 10.1299 93.2739 11.4299 91.8739 12.6299C93.0739 11.6299 97.7739 16.7299 98.5739 17.8299C100.674 20.8299 101.874 24.2299 101.574 27.9299C101.374 30.1299 100.574 32.4299 101.074 34.6299C101.774 37.1299 104.074 38.8299 105.874 40.7299C107.574 42.3299 108.874 44.3299 109.374 46.5299Z" fill="#EE4E2F"/>
<path d="M91.6739 40.43C89.1739 41.93 85.6739 41.63 84.8739 38.43C84.5739 37.43 84.7739 36.33 84.9739 35.23C85.0739 34.53 85.2739 33.73 85.7739 33.13C88.2739 30.03 92.4739 32.43 93.4739 35.63C93.7739 36.63 93.7739 37.73 93.2739 38.63C92.9739 39.53 92.2739 40.03 91.6739 40.43Z" fill="#FFC280"/>
<path d="M89.0739 35.0299C89.8739 34.8299 90.6739 35.3299 90.9739 36.1299C91.2739 36.8299 90.8739 37.8299 90.1739 38.1299C89.9739 38.2299 89.8739 38.2299 89.6739 38.1299" stroke="#484A4D" stroke-miterlimit="10"/>
<path d="M68.1739 46.1299C71.4739 47.5299 75.2739 48.6299 78.6739 47.5299C75.9739 50.7299 71.8739 52.7299 67.6739 52.9299C67.7739 50.9299 67.8739 48.9299 68.0739 47.0299C68.1739 46.6299 68.1739 46.3299 68.1739 46.1299Z" fill="#443748"/>
<path d="M86.0739 12.8299C87.7739 12.7299 89.5739 12.5299 91.2739 12.4299" stroke="#484A4D" stroke-miterlimit="10"/>
<path d="M85.3739 27.5299C89.2739 28.0299 93.4739 26.2299 95.7739 23.0299" stroke="#484A4D" stroke-miterlimit="10"/>
<path d="M100.574 101.83C100.374 101.73 100.174 101.73 99.8739 101.63C101.074 97.33 101.574 92.83 101.474 88.33" stroke="#484A4D" stroke-miterlimit="10"/>
<path d="M68.9739 162.43C70.7739 164.23 72.0739 166.43 72.9739 168.73C74.5739 172.53 75.2739 176.53 75.9739 180.53C77.8739 191.03 79.7739 201.53 81.6739 212.03" stroke="#484A4D" stroke-miterlimit="10"/>
<path d="M42.1739 264.33C42.5739 266.43 42.9739 268.53 44.0739 270.33C45.1739 272.13 47.0739 273.63 49.1739 273.63C51.3739 273.63 53.2739 272.23 54.4739 270.43C55.6739 268.63 56.0739 266.43 56.3739 264.33C56.9739 260.43 57.0739 256.43 56.6739 252.43C56.2739 247.33 50.5739 234.53 43.4739 238.83C37.3739 242.63 41.1739 258.53 42.1739 264.33Z" fill="#B46457"/>
<path d="M102.374 254.03C103.274 257.53 104.474 261.03 105.874 264.33C106.274 265.33 106.774 266.43 107.774 267.03C108.774 267.63 109.974 267.63 111.074 267.53C112.674 267.43 114.474 267.33 115.474 266.13C115.974 265.53 116.274 264.83 116.574 264.13C118.774 257.93 120.374 242.93 113.574 238.63C110.474 236.63 107.274 238.53 105.074 240.93C101.674 244.73 101.174 249.13 102.374 254.03Z" fill="#B46457"/>
<path d="M71.5739 375.83C69.7739 376.13 67.8739 376.33 65.9739 376.43C64.3739 376.53 62.7739 376.63 61.1739 376.43C59.5739 376.33 58.0739 376.03 56.4739 375.83C54.0739 375.53 51.5739 375.13 49.1739 375.33C48.3739 375.43 45.7739 378.73 44.9739 379.33C42.9739 381.13 40.9739 383.03 38.9739 384.83C34.2739 388.93 29.0739 392.43 23.4739 395.13C21.0739 396.23 18.5739 397.33 16.7739 399.13C15.9739 399.83 15.3739 401.03 15.7739 401.93C16.1739 402.73 17.1739 403.03 18.0739 403.03C22.5739 402.93 27.1739 403.33 31.6739 402.83C44.5739 401.23 57.5739 399.63 70.4739 397.53C73.2739 397.03 75.1739 394.33 74.6739 391.53C73.6739 385.93 72.1739 377.73 71.7739 376.73C71.7739 376.33 71.6739 376.03 71.5739 375.83Z" fill="#443748"/>
</svg>
