<svg width="151" height="417" viewBox="0 0 151 417" fill="none" xmlns="http://www.w3.org/2000/svg">
<path d="M75.5 416.431C117.197 416.431 151 407.342 151 396.131C151 384.919 117.197 375.831 75.5 375.831C33.8025 375.831 0 384.919 0 396.131C0 407.342 33.8025 416.431 75.5 416.431Z" fill="#E3E3E3"/>
<path d="M27.9 383.431C23.8 384.231 16.2 383.831 12.4 382.331C13.2 353.031 14 323.831 14.8 294.531C15.2 278.131 15.7 261.731 17.6 245.531C18.8 235.831 20.5 226.031 24.1 216.931C26.3 211.331 30.5 200.331 36.4 197.531C55.1 188.731 69.4 188.631 68.2 198.931C65.9 218.631 58.9 227.631 55.1 268.131C52.7 293.631 38 356.731 35.2 382.231C35.1 382.731 31 382.831 27.9 383.431Z" fill="#FFC280"/>
<path d="M32.9 373.131C34.1 373.231 35.3 373.331 36.5 373.331C36.6 378.031 41.4 381.031 45.6 383.131C52.9 386.931 60.2 391.031 67.2 395.331C68.1 395.931 69.0999 396.531 69.5 397.431C72.4 403.131 58.6 400.331 56.4 400.131C38.8 398.931 9.39995 396.531 9.59995 394.931C10.3 386.931 11.4 379.131 11.9 371.031C18.9 371.931 25.9 372.531 32.9 373.131Z" fill="black"/>
<path d="M99.9 383.631C98.9 383.931 87.8 383.631 87.8 383.731C86 379.831 82.4 351.731 81.4 336.231C80.1 316.531 77.9 299.531 77.6 279.831C77.3 262.231 77.8 244.031 85.3 227.931C87.3 223.831 89.8 219.731 93.6 217.031C97.5 214.331 102.9 213.331 107.1 215.631C112.9 218.731 113.9 226.131 114.1 232.331C116.1 282.831 109.3 331.831 107 382.031C107.1 382.531 103 382.831 99.9 383.631Z" fill="#FFC280"/>
<path d="M131.8 73.9307C132 74.7307 132.1 75.6307 131.9 76.4307C131.7 77.2307 131.1 78.0307 130.2 78.1307C129.8 78.1307 129.3 78.0307 128.9 77.8307C127 76.7307 126.3 74.3307 125.8 72.2307C125.3 70.0307 122.9 61.1307 128 61.2307C130.8 61.2307 131.3 71.5307 131.8 73.9307Z" fill="#FFC280"/>
<path d="M75.1 216.631C75.5 210.331 75.8 203.931 76.2 197.631C76.9 184.631 77.6 171.331 74.3 158.731C73.3 154.931 71.8 150.931 68.7 148.531C63.7 144.531 56.3 148.431 51.2 150.631C45.7 152.931 40.9 156.531 37.1 161.131C29.2 170.631 25.8 183.131 22.2 194.631C20.4 200.531 18.7 206.431 17.1 212.431C14.1 223.931 11.5 235.431 9.39998 247.131C8.89998 250.031 5.09998 279.531 4.09998 279.531C26.5 281.631 49.1 282.431 71.7 282.031C72.7 260.231 73.9 238.431 75.1 216.631Z" fill="#FFC8BD"/>
<path d="M120.4 252.931C120.4 246.231 120.2 239.531 119.8 232.731C118.9 218.431 117.3 204.231 114.9 190.131C113.4 180.931 110.6 171.931 105.3 164.131C100.5 156.931 92.7 145.931 83 151.031C77.9 153.731 75.3 159.431 73.5 164.931C62.4 199.431 69.8 236.931 66.1 272.931C83.8 273.631 101.5 274.231 119.3 274.931C120 267.531 120.3 260.231 120.4 252.931Z" fill="#FFC8BD"/>
<path d="M59 191.131C63.5 192.531 68 193.631 72.6 194.531C75.6 191.431 78.3 187.931 80.6 184.331C83.8 188.131 86.2 190.631 88 195.231C93.2 192.331 98.6 191.131 103.8 188.231C106.3 186.831 108.8 185.431 110.8 183.431C116.3 177.831 113.5 171.131 108.9 166.131C102.6 159.231 93.6 155.031 84.3 154.231C79.5 153.831 74.9 155.031 70.2 154.631C64 154.231 57.9 154.131 51.7 154.731C43.1 155.431 34.5 156.331 28.9 163.731C26.9 166.331 27 174.531 29 177.231C29.8 178.331 31 179.031 32.1 179.631C40.6 184.331 49.7 188.231 59 191.131Z" fill="#DFA451"/>
<path d="M77.3 44.0308C82.3 43.6308 87.6 40.5308 90.7 37.3308C93.1 34.8308 95.8 30.2308 96.2 26.7308C96.4 25.1308 96.1 23.5308 95.9 22.0308C95.5 19.0308 95.3 15.9308 94.4 12.9308C93.5 10.0308 91.9 7.13079 89.3 5.53079C85.6 3.23079 81.7 5.13079 78 6.33079C74.1 7.63079 70 8.93079 66.7 11.3308C63.3 13.7308 60.6 17.4308 60.5 21.6308C60.4 23.1308 60.7 24.7308 60.7 26.2308C60.7 27.3308 60.5 28.4308 60.7 29.4308C60.9 30.2308 61.3 30.8308 61.7 31.5308C63 33.7308 64.5 35.8308 66 37.8308C67.4 39.7308 69 41.5308 71 42.7308C72.8 43.8308 75 44.2308 77.3 44.0308Z" fill="black"/>
<path d="M39.4 177.631C63.9 179.131 90.7 184.131 115 181.231C116.6 161.131 109.1 137.431 107.9 117.831C107.7 114.231 106.4 111.031 106.2 107.431C105.9 103.031 110.8 100.331 110.7 95.9308C110.5 87.4308 109.8 75.9308 105.3 68.4308C99.6 58.8308 84.3 54.9308 73.4 54.4308C64.8 54.0308 48 55.1308 41.8 61.8308C36.2 67.8308 34.6 78.1308 34.5 86.0308C34.4 94.7308 33.4 102.531 32.1 111.331C29 132.931 25.9 154.631 22.8 176.231C28.4 176.831 33.9 177.231 39.4 177.631Z" fill="#6074A8"/>
<path d="M64 31.9308C63.8 26.5308 63.7 20.0308 67.2 15.6308C72.3 9.03077 84.8 9.13077 90.4 15.2308C91.7 16.6308 92.5 18.4308 93.2 20.1308C94.9 24.6308 95.7 29.6308 94.8 34.3308C94.2 37.3308 93 40.2308 91.1 42.6308C90.2 43.7308 89.1 45.1308 87.9 45.8308C87.5 46.0308 84.3 46.9308 84.2 46.6308C84.4 48.4308 84.6 50.8308 84.6 52.6308C84.6 57.5308 82 65.8308 78.2 67.3308C73.2 69.2308 64.2 63.7308 63.3 56.6308C63.2 55.7308 63.2 54.9308 63.3 54.0308C63.7 48.4308 64 42.8308 64.1 37.3308C64.1 35.5308 64.1 33.7308 64 31.9308Z" fill="#FFC280"/>
<path d="M85.409 33.509C85.309 33.509 85.309 33.509 85.209 33.509C85.009 33.409 84.909 33.109 85.009 32.909C85.809 30.509 84.109 27.909 84.109 27.809C83.909 27.609 84.009 27.309 84.209 27.109C84.409 26.909 84.709 27.009 84.909 27.209C85.009 27.309 86.909 30.309 85.909 33.209C85.809 33.409 85.609 33.509 85.409 33.509Z" fill="black"/>
<path d="M69 30.4307C69 33.3307 66.7 35.6307 63.8 35.6307C60.9 35.6307 58.6 33.3307 58.6 30.4307C58.6 27.5307 60.9 25.2307 63.8 25.2307C66.7 25.2307 69 27.5307 69 30.4307Z" fill="#FFC280"/>
<path d="M64.7 28.1307C63.5 28.2307 62.5 29.1307 62.1 30.2307C61.7 31.3307 62.1 32.6307 62.9 33.4307" stroke="#1A2732" stroke-miterlimit="10"/>
<path d="M84.6744 50.4884C83.186 51.0465 81.6046 50.4884 80.2093 49.7442C78.0698 48.6279 76.0233 47.1395 75 45C76.9535 45.9302 79.093 46.4884 81.2326 46.4884C82.0698 46.4884 82.814 46.3953 83.6512 46.3953C84.7674 46.3023 85.8837 46.2093 87 46.1163" fill="black"/>
<path d="M67.7 8.23074C68.1 7.53074 68.6 6.93074 69.1 6.43074C72.1 3.73074 77 5.23074 80.7 3.63074C83.1 2.63074 85 0.33074 87.6 0.0307395C89.3 -0.16926 91 0.63074 92.3 1.73074C93.6 2.83074 94.5 4.43074 95.2 5.93074C96.3 8.13074 97.2 10.6307 96.5 12.9307C95.8 15.5307 93.2 17.4307 90.5 17.8307C88.6 18.1307 86.7 17.8307 84.8 17.9307C80.8 18.0307 78.2 21.4307 74.3 22.3307C72.9 22.6307 71.5 22.8307 70.2 23.5307C68.4 24.5307 68.3 26.1307 67.9 27.9307C67.7 28.6307 67.3 31.4307 66 31.0307C65.7 30.9307 65.5 30.5307 65.4 30.2307C65.2 28.8307 66.1 26.5307 64.5 25.6307C64.1 25.3307 63.5 25.3307 63 25.3307C62.5 25.3307 62 25.4307 61.5 25.3307C61.1 25.3307 60.2 15.4307 60.7 14.4307C61.7 12.4307 64.3 11.9307 65.9 10.3307C66.8 9.73074 67.2 8.93074 67.7 8.23074Z" fill="black"/>
<path d="M88.1 56.5307C87.6 55.7307 86.7 55.3307 85.8 54.6307C85.6 54.5307 84.6 53.8307 84.7 53.6307C84.5 54.6307 84.4 55.5307 84 56.4307C83.6 57.3307 82.9 58.1307 82.3 58.9307C80.5 61.2307 74 66.2307 75.2 69.3307C75.9 71.2307 78.5 73.3307 80 74.7307C80.5 75.2307 85.2 78.8307 85.2 79.2307C86.3 73.1307 87.4 67.0307 88.5 60.9307C88.7 59.9307 88.9 58.8307 88.7 57.8307C88.5 57.3307 88.3 56.9307 88.1 56.5307Z" fill="#DFA451"/>
<path d="M63.3 51.6307C61 53.1307 59.1 54.9307 56.3 55.7307C60.3 63.2307 63.8 71.3307 68.4 78.4307C68.7 78.2307 69 77.9307 69.3 77.6307C70.9 76.0307 72.2 73.6307 73.4 71.7307C74 70.7307 76.1 68.0307 76.5 66.5307C70.4 63.5307 65.3 58.1307 63.3 51.6307Z" fill="#DFA451"/>
<path d="M83.1 28.6307C83.1 31.9307 80.5 34.5307 77.2 34.5307C73.9 34.5307 71.3 31.8307 71.3 28.6307C71.3 25.3307 73.9 22.7307 77.2 22.7307C80.5 22.7307 83.1 25.3307 83.1 28.6307Z" stroke="#592B4B" stroke-miterlimit="10"/>
<path d="M98.6 28.6307C98.6 31.9307 96 34.5307 92.7 34.5307C89.4 34.5307 86.8 31.9307 86.8 28.6307C86.8 25.3307 89.4 22.7307 92.7 22.7307C96 22.7307 98.6 25.3307 98.6 28.6307Z" stroke="#592B4B" stroke-miterlimit="10"/>
<path d="M83.1 28.6307H86.8" stroke="#592B4B" stroke-miterlimit="10"/>
<path d="M65.8 26.7307L71.4 28.9307" stroke="#592B4B" stroke-miterlimit="10"/>
<path d="M83.3999 110.031C83.3999 111.131 82.4999 112.131 81.2999 112.131C80.1999 112.131 79.2 111.231 79.2 110.031C79.2 108.831 80.0999 107.931 81.2999 107.931C82.3999 107.931 83.3999 108.831 83.3999 110.031Z" fill="#1A2732"/>
<path d="M82.8 125.331C82.8 126.431 81.9 127.431 80.7 127.431C79.6 127.431 78.6 126.531 78.6 125.331C78.6 124.231 79.5 123.231 80.7 123.231C81.9 123.231 82.8 124.131 82.8 125.331Z" fill="#1A2732"/>
<path d="M71.1 97.7307C69.1 98.9307 67.2 100.431 65.8 102.231C63.6 105.131 62.5 109.131 64 112.431C64.9 114.331 66.5 115.731 68.3 116.731C73.3 119.331 79.6 118.431 84.5 115.431C90.4 111.831 95.1 105.631 98.7 99.9307C101.9 94.8307 107.1 88.3307 110.4 83.2307C110.6 82.9307 103.7 74.2307 102.2 73.6307C102.2 73.6307 95.2 80.7307 91.6 83.5307C85.7 88.0307 81.2 92.4307 74.5 95.8307C73.4 96.4307 72.3 97.0307 71.1 97.7307Z" fill="#FFC280"/>
<path d="M112.8 59.1307C110.7 60.4307 108.5 61.8307 107 63.8307C105.8 65.4307 103.5 72.0307 107 72.2307C110 72.3307 109.4 67.7307 110.4 66.0307C111.6 64.0307 114 62.9307 115.9 61.8307C118.8 60.1307 116.3 56.9307 113.4 58.7307C113.3 58.9307 113.1 59.0307 112.8 59.1307Z" fill="#FFC280"/>
<path d="M125.7 80.6308L111.1 77.8308C110.6 77.7308 110.3 77.2308 110.4 76.7308L116.4 45.0308C116.5 44.6308 116.9 44.3308 117.3 44.4308L132.2 47.2308C132.6 47.3308 132.9 47.7308 132.8 48.1308L126.8 79.8308C126.7 80.3308 126.2 80.7308 125.7 80.6308Z" fill="black"/>
<path d="M119.6 82.5308C120.9 84.3308 122.1 86.3308 122.8 88.4308C123.9 91.4308 124.8 94.7308 128 95.5308C133.8 97.0308 134 88.9308 134.2 85.3308C134.4 82.0308 134.5 78.6308 133 75.7308C130.9 71.8308 126.5 70.3308 122.6 68.8308C121.5 68.4308 120.4 67.9308 119.2 67.9308C116.5 67.9308 114.4 70.2308 112.6 72.3308C111.4 73.7308 110.2 75.5308 110.7 77.3308C111.1 78.7308 112.5 79.5308 113.9 79.9308C115.3 80.3308 116.7 80.5308 118 81.1308C118.7 81.5308 119.2 81.9308 119.6 82.5308Z" fill="#FFC280"/>
<path d="M120.3 114.131C115 116.031 106 115.631 105.8 108.231C105.7 103.131 111 99.8307 114.3 96.7307C117.7 93.5307 121.5 89.3307 122.7 84.7307C123.3 82.2307 123.9 86.0307 126.2 84.7307C126.8 84.3307 127.4 84.1307 127.9 83.8307C131.4 82.2307 134.2 81.5307 134.3 85.3307C134.3 90.5307 132.7 96.6307 131.6 100.231C129.8 106.031 126.3 111.831 120.7 114.031C120.5 114.031 120.4 114.131 120.3 114.131Z" fill="#FFC280"/>
<path d="M125.6 61.4308C120.4 61.6308 116 61.3308 110.9 64.1308C107.7 65.8308 110 68.3308 112.1 67.4308C116.6 65.5308 121.4 64.4308 126.3 64.3308C128.5 64.3308 127.9 61.4308 125.6 61.4308Z" fill="#FFC280"/>
<path d="M129.3 64.8308C128.1 64.2308 125.4 65.1308 124.2 65.3308C120 66.0308 115.9 67.0308 111.8 68.1308C109.6 68.7308 110.8 72.0308 113 71.4308C115.7 70.7308 118.5 70.0308 121.2 69.4308C123.7 68.9308 126.6 69.0308 128.9 67.9308C130.3 67.4308 130.9 65.7308 129.3 64.8308Z" fill="#FFC280"/>
<path d="M128.1 69.7308C127.3 69.2308 125.6 69.4308 124.9 69.5308C123.5 69.6308 122.2 69.8308 120.8 70.1308C118.1 70.6308 115.6 71.4308 113 72.3308C110.1 73.4308 112.9 76.2308 115.2 75.8308C115.9 75.6308 116.6 75.3308 117.3 75.0308C118.7 74.3308 120.2 73.9308 121.8 73.6308C123.3 73.3308 124.9 73.3308 126.4 72.9308C127.3 72.6308 128.1 72.2308 128.5 71.4308C128.7 70.4308 128.5 70.0308 128.1 69.7308Z" fill="#FFC280"/>
<path d="M125 73.4308C124.8 73.4308 124.5 73.5308 124.3 73.5308C120.8 74.8308 117.2 75.4308 113.6 76.7308C112.1 77.3308 112 80.5308 113.8 80.7308C114.5 80.8308 115.1 80.4308 115.7 80.2308C118.3 78.9308 120.9 77.6308 123.5 76.3308C124.3 75.9308 125.3 75.4308 125.6 74.5308C125.7 74.3308 125.7 74.0308 125.6 73.8308C125.5 73.5308 125.3 73.4308 125 73.4308Z" fill="#FFC280"/>
<path d="M117 77.2308C117.3 77.7308 117.2 78.3308 117 78.9308C116.8 79.6308 116.3 80.1308 115.8 80.6308C113.8 82.6308 111.4 84.4308 108.6 84.8308C106.1 85.1308 103.4 84.2308 101.7 82.2308C100 80.3308 98.7 80.0308 99.4 77.5308C99.7 76.4308 101.4 73.6308 102 72.7308C103.5 70.4308 108.4 64.0308 111.8 64.0308C114.4 64.1308 114.4 72.0308 117 77.2308Z" fill="#FFC280"/>
<g opacity="0.54">
<g opacity="0.54">
<g opacity="0.54">
<g opacity="0.54">
<path opacity="0.54" d="M125.6 51.0308C125.5 51.6308 124.9 52.0308 124.3 51.9308C123.7 51.8308 123.3 51.2308 123.4 50.6308C123.5 50.0308 124.1 49.6308 124.7 49.7308C125.4 49.8308 125.7 50.4308 125.6 51.0308Z" fill="white"/>
</g>
</g>
</g>
</g>
<path d="M24.2 74.9308C16.7 84.9308 14.9 95.4307 14.7 107.631C14.6 114.831 14.5 122.131 16.9 128.831C19.3 135.631 24.5 141.731 31.5 143.331C34.2 143.931 37 143.831 39.7 143.631C50.1 142.731 61 140.831 70.6 136.831C76.3 134.431 82.2 130.531 85.2 125.031C87.7 120.431 91.4 117.831 90.2 112.031C92.8 109.531 95.1 106.731 97.1 103.831C94.6 98.3308 90.8 91.7308 88.3 86.2308C80.5 90.1308 73.2 93.1308 65.2 96.5308C59 99.2308 53.1 102.631 47.7 106.731C49.6 105.331 50.2 96.9307 50.6 94.6307C51.4 90.0308 52 85.4308 52.2 80.8308C52.4 76.4308 52.4 72.0308 52.2 67.6308C52.1 65.8308 51.5 63.6308 51.8 61.8308C52 60.5308 53.9 58.5308 53 57.1308C52.7 56.6308 51.8 56.5308 50 57.1308C39.9 60.7308 30.5 66.4308 24.2 74.9308Z" fill="#6074A8"/>
<path d="M96 106.031C93.6 109.031 91.2 112.231 90.1 115.931C89.7 117.431 89.5 119.031 88.8 120.531C87.8 122.831 85.8 124.531 83.8 126.031C71.5 135.231 57.7 140.131 42.9 143.431C38 144.531 32.3 145.131 28.4 141.931" stroke="#1A2732" stroke-miterlimit="10"/>
<path d="M85.1 87.7307C82.7 88.6307 80.7 90.5307 78.3 91.4307C76.8 92.0307 75.2 92.1307 73.6 92.5307C71 93.1307 68.6 94.3307 66.2 95.5307C57 100.031 48.2 104.731 39.8 110.631" stroke="#1A2732" stroke-miterlimit="10"/>
<path d="M49.3 78.5308C51 82.5308 51.1 86.9308 50.7 91.2308C50.3 95.5308 49.3 99.7308 48.8 104.031" stroke="#1A2732" stroke-miterlimit="10"/>
<path d="M112.3 94.8308C111.3 96.1308 110.2 97.2308 108.6 97.3308C100.8 97.7308 100.8 98.7308 100.8 106.831C100.8 117.931 102.2 129.031 103.6 140.031C103.7 140.031 103.8 140.031 103.9 140.031C110.6 139.231 115.2 133.031 118.8 127.231C123.8 119.031 129.4 110.431 132.8 101.431C127.4 98.6308 122.2 94.6308 117.1 91.1308C116.9 91.0308 116.7 90.8308 116.4 90.8308C116.2 90.8308 115.9 90.9308 115.8 91.0308C114.3 91.8308 113.3 93.4308 112.3 94.8308Z" fill="#6074A8"/>
<path d="M115.1 80.7307C116.6 79.4307 117.9 77.9307 118.9 76.2307C119.2 75.6307 119.6 75.0307 120.1 74.5307C120.6 74.1307 121.1 74.0307 121.7 73.8307C123.9 73.1307 126.1 72.5307 128.3 71.8307" stroke="#1A2732" stroke-miterlimit="10"/>
<path d="M123.6 69.2307C121.6 69.7307 119.7 70.2307 117.7 70.7307" stroke="#1A2732" stroke-miterlimit="10"/>
<path d="M122.1 86.6307C122.7 87.7307 123.7 88.5307 124.9 88.9307" stroke="#1A2732" stroke-miterlimit="10"/>
<path d="M109.4 139.631C109.7 125.531 110 111.431 110.2 97.2307" stroke="#1A2732" stroke-miterlimit="10"/>
<path d="M90.6 106.431C91.7 107.131 93 105.631 92.4 104.531C92.3 104.331 92.2 104.231 92 104.131C91.8 103.931 91.6 103.831 91.3 103.731C90.8 103.531 90.2 103.831 89.9 104.331C89.7 105.031 89.9 106.131 90.6 106.431Z" fill="#1A2732"/>
<path d="M109.6 376.331C112.2 381.631 118.2 385.431 123.5 387.131C131.2 389.631 138.9 392.531 146.5 395.331C147.3 395.631 148.2 396.031 148.6 396.831C149 397.731 148.6 398.731 147.8 399.331C147.1 399.931 146.1 400.131 145.2 400.331C140.4 401.231 85.1 399.631 85.1 398.031C85.1 389.631 85.1 381.131 85.1 372.731C91.4 373.031 97.7 373.331 104 373.631C105.6 373.731 107.2 373.731 108.6 373.131C108.7 374.231 109.1 375.331 109.6 376.331Z" fill="black"/>
<path d="M72 274.131C73.3 250.531 74.7 226.931 76.4 203.331" stroke="#1A2732" stroke-miterlimit="10"/>
<path d="M20.4 211.231C28.2 211.531 36 207.631 40.3 201.131" stroke="#1A2732" stroke-miterlimit="10"/>
<path d="M102.5 189.831C104.8 194.131 110.1 196.631 115 195.731" stroke="#1A2732" stroke-miterlimit="10"/>
<path d="M80.7 39.0308C81.4 40.1308 82.5999 40.9308 83.7999 41.1308C85.0999 41.3308 86.4999 41.0308 87.4999 40.2308" fill="white"/>
<path d="M78.2 30.65C78 30.65 77.8 30.55 77.7 30.25L77 27.85C77 27.65 77 27.55 77.1 27.35L78.2 26.15C78.4 25.95 78.7 25.95 78.9 26.15C79.1 26.35 79.1 26.65 78.9 26.85L78.1 27.85L78.7 30.05C78.8 30.35 78.6 30.55 78.3 30.65C78.2 30.65 78.2 30.65 78.2 30.65Z" fill="black"/>
<path d="M91.2 30.35C91 30.35 90.8 30.25 90.7 29.95L90 27.55C90 27.35 90 27.25 90.1 27.05L90.9 26.15C91.1 25.95 91.4 25.95 91.6 26.15C91.8 26.35 91.8 26.65 91.6 26.85L91.1 27.55L91.7 29.75C91.7 29.95 91.6 30.25 91.3 30.35H91.2Z" fill="black"/>
</svg>
