<svg width="78" height="38" viewBox="0 0 78 38" fill="none" xmlns="http://www.w3.org/2000/svg">
<g clip-path="url(#clip0_101_23656)">
<path d="M29.8416 8.89893C28.5233 8.89893 27.3146 9.31669 26.2492 10.1406C25.2279 10.9306 24.5478 11.9367 24.1475 12.6683C23.7471 11.9366 23.0671 10.9306 22.0457 10.1406C20.9803 9.31669 19.7717 8.89893 18.4533 8.89893C14.7743 8.89893 11.9999 11.9081 11.9999 15.8987C11.9999 20.2098 15.4612 23.1594 20.701 27.6247C21.5908 28.3831 22.5994 29.2426 23.6477 30.1593C23.7859 30.2803 23.9634 30.3469 24.1475 30.3469C24.3316 30.3469 24.5091 30.2803 24.6472 30.1594C25.6956 29.2425 26.7042 28.383 27.5945 27.6243C32.8338 23.1594 36.295 20.2098 36.295 15.8987C36.295 11.9081 33.5206 8.89893 29.8416 8.89893Z" fill="#FE5FAA"/>
</g>
<g clip-path="url(#clip1_101_23656)">
<path d="M49.7761 8.89893C48.4577 8.89893 47.2491 9.31669 46.1837 10.1406C45.1623 10.9306 44.4823 11.9367 44.0819 12.6683C43.6816 11.9366 43.0016 10.9306 41.9802 10.1406C40.9148 9.31669 39.7061 8.89893 38.3878 8.89893C34.7088 8.89893 31.9344 11.9081 31.9344 15.8987C31.9344 20.2098 35.3956 23.1594 40.6355 27.6247C41.5253 28.3831 42.5339 29.2426 43.5822 30.1593C43.7203 30.2803 43.8978 30.3469 44.0819 30.3469C44.266 30.3469 44.4435 30.2803 44.5817 30.1594C45.6301 29.2425 46.6386 28.383 47.5289 27.6243C52.7682 23.1594 56.2295 20.2098 56.2295 15.8987C56.2295 11.9081 53.4551 8.89893 49.7761 8.89893Z" fill="#FE5FAA"/>
</g>
<g clip-path="url(#clip2_101_23656)">
<path d="M14.7565 26.9632V30.2132H2.35699V9.04468H6.29498V26.9632H14.7565Z" fill="#282828"/>
</g>
<g clip-path="url(#clip3_101_23656)">
<path d="M62.2129 17.9159H63.1352C63.506 17.9159 63.8135 17.8671 64.0574 17.7695C64.3014 17.6621 64.5113 17.4962 64.6869 17.2717L70.528 9.87888C70.772 9.56657 71.0258 9.35186 71.2893 9.23475C71.5625 9.10787 71.9041 9.04443 72.314 9.04443H75.7104L68.581 17.8427C68.1613 18.3794 67.727 18.7601 67.2781 18.9845C67.6002 19.1017 67.8881 19.2676 68.1418 19.4823C68.4053 19.6872 68.6542 19.9605 68.8884 20.3021L76.2374 30.2129H72.7679C72.2994 30.2129 71.9481 30.1495 71.7138 30.0226C71.4893 29.886 71.299 29.6908 71.1429 29.437L65.1554 21.6196C64.97 21.3561 64.7552 21.1707 64.5113 21.0633C64.2673 20.956 63.9159 20.9023 63.4572 20.9023H62.2129V30.2129H58.2749V9.04443H62.2129V17.9159Z" fill="#282828"/>
</g>
<defs>
<clipPath id="clip0_101_23656">
<rect width="24.2951" height="24.2951" fill="white" transform="translate(12 7.47534)"/>
</clipPath>
<clipPath id="clip1_101_23656">
<rect width="24.2951" height="24.2951" fill="white" transform="translate(31.9344 7.47534)"/>
</clipPath>
<clipPath id="clip2_101_23656">
<rect width="12.7705" height="21.1803" fill="white" transform="translate(2.18036 9.03296)"/>
</clipPath>
<clipPath id="clip3_101_23656">
<rect width="18.377" height="21.1803" fill="white" transform="translate(58.0983 9.03271)"/>
</clipPath>
</defs>
</svg>
